<?xml version="1.0" encoding="utf-8"?>
<!-- Generator: Adobe Illustrator 17.0.1, SVG Export Plug-In . SVG Version: 6.00 Build 0)  -->
<!DOCTYPE svg PUBLIC "-//W3C//DTD SVG 1.1//EN" "http://www.w3.org/Graphics/SVG/1.1/DTD/svg11.dtd">
<svg version="1.1" id="Layer_1" xmlns="http://www.w3.org/2000/svg" xmlns:xlink="http://www.w3.org/1999/xlink" x="0px" y="0px"
	 width="681.935px" height="267.656px" viewBox="199 406.344 681.935 267.656" enable-background="new 199 406.344 681.935 267.656"
	 xml:space="preserve" fill="#fff">
<g transform="translate(0.000000,1080.000000) scale(0.100000,-0.100000)">
	<path d="M5710,6734c-126-11-256-27-355-45c-310-53-726-184-1050-329c-235-105-434-164-664-196c-156-22-428-22-590,1l-123,17l-46-53
		c-218-257-486-421-759-463l-78-12l-3-177l-2-177h45h45v135v134l43,11c354,89,587,231,767,469l26,33l115-11c145-14,400-14,527,0
		c219,23,428,81,631,174c354,161,751,291,1071,349c209,38,374,49,628,43c390-8,599-56,1452-327c484-154,622-196,800-245
		c74-20,139-41,145-46c6-6-5-21-28-40c-49-40-67-77-67-137c0-69,34-130,90-159c50-26,90-28,175-8c91,22,168,20,191-6
		c39-43,12-195-50-288l-35-51h55h54l30,60c59,118,76,245,42,310c-38,70-154,97-283,66c-74-18-112-15-141,11c-27,25-33,75-12,118
		c23,50,71,78,167,99c25,6,27,10,27,51c0,25-2,45-4,45c-3,0-58,7-123,15c-315,41-593,115-938,250c-504,197-915,316-1251,360
		C6118,6730,5800,6742,5710,6734z"/>
	<path d="M5605,6479c-111-12-251-48-364-94c-86-35-191-94-191-106c0-4,20-18,44-32l43-24l54,31c86,50,172,85,277,113
		c81,21,127,26,276,30c275,8,422-18,700-127c157-61,286-101,394-121c34-6,62-15,62-19c0-15-49-51-111-80c-126-59-149-60-935-60h-715
		l-39-31c-21-17-67-42-102-55l-63-24l840,3c830,3,841,3,920,25c181,50,298,136,330,245c8,28,15,56,15,62c0,8-28,14-75,18
		c-106,9-233,44-505,136c-129,44-269,87-310,96C6059,6485,5738,6493,5605,6479z"/>
	<path d="M2695,6203c-297-23-515-140-655-350c-27-41-50-79-50-84s20-9,44-9c42,0,46,3,99,69c132,162,332,272,524,287
		c127,10,118,6,121,52S2789,6211,2695,6203z"/>
	<path d="M4885,6206c-5-2-22-7-37-10c-39-9-98-64-119-111c-12-25-19-64-19-102v-63h56c50,0,58,3,87,34c29,30,39,34,111,41
		c95,8,123,20,142,56c31,60,5,117-63,137C5001,6200,4901,6212,4885,6206z"/>
	<path  d="M3268,5820c-227-39-426-187-527-394c-62-128-62-126,1-126l53,1l37,77c106,222,311,352,553,352
		c182,0,310-54,441-185c59-59,91-101,123-162l42-83h59h60l-21,53c-70,177-240,350-415,421C3553,5823,3395,5841,3268,5820z"/>
	<path d="M7709,5790c-251-40-443-196-539-440l-20-50h49h49l38,78c80,161,235,280,414,318c248,52,514-82,637-321l38-75h53
		c28,0,52,4,52,9c0,21-44,109-86,172c-93,140-252,254-409,294C7908,5794,7781,5801,7709,5790z"/>
	<path d="M6624,5673c-8-21-24-59-35-85l-19-48h114h114l31,78c17,42,31,80,31,85c0,4-49,7-110,7h-110L6624,5673z"/>
	<path d="M6474,5435c-8-20-23-58-34-85l-20-50h113h113l32,78c18,42,32,80,32,85c0,4-50,7-111,7h-110L6474,5435z"/>
	<path d="M2310,4876c0-3-38-182-85-398s-85-399-85-406c0-11,33-13,178-10c170,3,179,4,240,32c111,51,182,155,182,265
		c0,61-28,104-87,135c-26,14-41,25-32,26c33,1,108,59,129,101c37,72,25,164-27,211c-44,40-87,48-253,48
		C2382,4880,2310,4878,2310,4876z M2605,4786c18-8,39-24,45-37c19-34,6-97-26-130c-36-38-86-50-182-47l-78,3l24,113l25,112h79
		C2537,4800,2585,4794,2605,4786z M2527,4419c53-20,73-48,73-100c0-39-6-55-30-82c-38-43-86-57-200-57c-69,0-91,3-88,13
		c3,6,16,63,29,125l23,112h83C2462,4430,2511,4425,2527,4419z"/>
	<path d="M2990,4828c-6-29-42-204-80-388c-39-184-72-345-75-357l-5-23h229h229l11,50c6,28,11,53,11,55c0,3-74,5-165,5s-165,2-165,5
		c0,6,39,172,51,218l10,37h129c71,0,131,3,133,8c3,4,8,28,12,55l7,47h-132c-132,0-132,0-127,23c3,12,14,64,23,115l18,92h177h176
		l7,38c13,79,33,72-228,72h-234L2990,4828z"/>
	<path d="M3705,4871c-149-38-238-198-176-319c25-49,48-69,159-137c51-31,100-67,108-81c22-32,11-87-22-113c-47-37-90-44-224-37
		l-126,6l-22-52c-12-28-20-53-18-56c12-11,325-6,373,6c103,27,168,99,180,201c11,99-23,146-177,241c-55,33-104,69-110,80
		c-23,43-2,110,44,141c14,10,63,16,155,19l134,5l15,43c8,24,12,45,11,46C4000,4872,3732,4878,3705,4871z"/>
	<path d="M4096,4843c-4-21-9-46-12-55c-5-16,4-18,100-18c58,0,106-2,106-6c0-6-149-661-156-686c-5-16,2-18,59-18h64l72,318
		c40,174,77,334,82,355l10,37h104c114,0,107-5,120,73l6,37h-274h-275L4096,4843z"/>
	<path d="M4901,4865c-67-21-137-74-188-140c-91-120-127-226-128-370c0-117,13-161,64-218c65-72,125-86,294-70l67,6v48v49h-111
		c-61,0-119,5-131,11c-34,18-58,86-58,169c0,162,74,325,179,392c51,32,88,35,194,14c50-9,70-10,72-2c12,36,24,90,21,94
		c-7,7-161,31-196,31C4961,4879,4925,4873,4901,4865z"/>
	<path d="M5288,4478c-112-222-204-406-206-410c-2-5,23-8,56-8h60l44,83l44,82l142,3l142,3v-86v-85h65h65v410v410h-105h-105
		L5288,4478z M5570,4535v-205h-111c-84,0-110,3-107,13c4,16,210,397,214,397C5568,4740,5570,4648,5570,4535z"/>
	<path d="M5906,4483c-44-219-81-404-84-410c-3-10,14-13,66-13h70l26,143c37,196,27,178,98,175l61-3l57-155l58-155l71-3
		c39-2,71,0,71,2c0,3-27,74-61,158s-63,158-66,164c-2,6,17,19,43,29c106,40,174,140,174,253c0,161-86,212-360,212h-145L5906,4483z
		 M6281,4760c73-20,99-93,60-172c-32-68-82-91-202-96l-96-4l24,128c13,71,26,135,28,142C6100,4773,6228,4775,6281,4760z"/>
	<path d="M6625,4678c-3-13-14-65-24-115c-17-88-17-93-1-93c12,0,20,12,26,42c9,42,10,43,59,50c119,17,115,138-5,138
		C6637,4700,6630,4697,6625,4678z M6728,4653c19-37-5-63-56-63c-30,0-32,2-26,28c10,49,13,52,43,52C6708,4670,6723,4663,6728,4653z"
		/>
	<path d="M6825,4679c-3-13-14-66-24-116c-18-90-18-93,0-93c13,0,19,11,25,45c5,38,10,45,29,45c17,0,25-9,34-41c11-36,34-59,46-47
		c3,2-2,23-11,45l-16,40l31,31c57,56,35,103-52,110C6835,4702,6831,4701,6825,4679z M6928,4642c5-33-15-52-54-52c-32,0-34,2-28,28
		c11,51,13,53,46,50C6918,4666,6926,4660,6928,4642z"/>
	<path d="M7041,4674c-40-33-57-94-42-146c29-97,151-69,181,41C7208,4675,7121,4742,7041,4674z M7140,4651c37-70-31-180-89-144
		c-25,16-26,91-1,131C7074,4676,7122,4683,7140,4651z"/>
	<path d="M7255,4678c-3-13-14-65-24-115c-18-88-18-93-1-93c13,0,20,12,26,48c9,47,9,47,52,50c56,4,60,32,3,32c-38,0-38,0-32,33
		c6,30,10,32,53,35c29,2,48,8,52,18c4,11-7,14-59,14C7266,4700,7260,4698,7255,4678z"/>
	<path d="M7425,4678c-3-13-14-65-24-115l-18-93h68c55,0,69,3,69,15c0,11-12,15-50,15c-35,0-48,4-46,13c3,6,7,24,10,40
		c6,24,11,27,46,27c29,0,40,4,40,15s-11,15-36,15c-33,0-35,2-32,28c3,25,7,27,50,30c29,2,48,8,52,18c4,11-7,14-59,14
		C7436,4700,7430,4698,7425,4678z"/>
	<path d="M7611,4674c-12-15-21-33-21-41c0-15,32-49,70-75c21-13,23-19,14-35c-13-22-60-29-80-12c-10,8-18,9-25,2c-15-15,28-43,66-43
		c49,0,77,25,73,68c-2,29-10,41-38,60c-22,15-35,31-35,45c0,19,6,22,40,23c58,1,62,3,41,19C7684,4709,7635,4704,7611,4674z"/>
	<path d="M7791,4674c-12-15-21-33-21-41c0-15,32-49,70-75c21-13,23-19,14-35c-13-22-60-29-80-12c-10,8-18,9-25,2c-15-15,28-43,66-43
		c49,0,77,25,73,68c-2,29-10,41-38,60c-22,15-35,31-35,45c0,19,6,22,40,23c58,1,62,3,41,19C7864,4709,7815,4704,7791,4674z"/>
	<path d="M7965,4678c-3-13-14-65-24-115c-17-88-17-93-1-93c14,0,21,20,39,108c25,127,25,122,6,122C7977,4700,7968,4690,7965,4678z"
		/>
	<path d="M8081,4674c-40-33-57-94-42-146c29-97,151-69,181,41C8248,4675,8161,4742,8081,4674z M8180,4651c37-70-31-180-89-144
		c-25,16-26,91-1,131C8114,4676,8162,4683,8180,4651z"/>
	<path d="M8285,4678c-3-13-14-65-24-115c-17-88-17-93-1-93c14,0,20,16,30,78c7,42,16,80,19,84c4,5,19-31,35-78c37-114,54-112,78,11
		c10,50,20,100,23,113c4,15,1,22-10,22c-19,0-22-6-38-105l-14-80l-30,90C8322,4698,8296,4726,8285,4678z"/>
	<path d="M8537,4668c-9-18-36-70-61-115c-40-74-43-83-25-83c12,0,25,13,36,35c15,31,21,35,55,35c37,0,38-1,38-35c0-29,4-35,21-35
		c19,0,21,4,15,43c-3,23-8,75-12,115c-6,65-9,72-28,72C8561,4700,8548,4689,8537,4668z M8575,4573c-2-7-16-13-31-13c-14,0-24,3-22,8
		c2,4,12,29,23,57l20,50l7-45C8577,4605,8578,4579,8575,4573z"/>
	<path d="M8695,4678c-3-13-14-65-24-115l-18-93h63c50,0,64,3,64,15c0,11-11,15-40,15c-47,0-48,5-25,110c8,36,14,71,15,78
		C8730,4709,8701,4701,8695,4678z"/>
	<path d="M6642,4275c-55-46-66-157-19-190c25-17,70-20,98-4c29,15,14,28-26,22c-46-7-65,10-65,59c0,76,54,129,101,100
		c23-14,36,3,19,23C6731,4308,6675,4303,6642,4275z"/>
	<path d="M6811,4274c-40-33-57-94-42-146c29-97,151-69,181,41C6978,4275,6891,4342,6811,4274z M6910,4251c37-70-31-180-89-144
		c-25,16-26,91-1,131C6844,4276,6892,4283,6910,4251z"/>
	<path d="M7025,4278c-3-13-14-65-24-115c-17-88-17-93-1-93c14,0,20,16,30,78c7,42,16,80,19,84c4,5,19-31,35-78c37-114,54-112,78,11
		c10,50,20,100,23,113c4,15,1,22-10,22c-19,0-22-6-38-105l-14-80l-30,90C7062,4298,7036,4326,7025,4278z"/>
	<path d="M7251,4274c-12-15-21-33-21-41c0-15,32-49,70-75c21-13,23-19,14-35c-13-22-60-29-80-12c-10,8-18,9-25,2c-15-15,28-43,66-43
		c49,0,77,25,73,68c-2,29-10,41-38,60c-22,15-35,31-35,45c0,19,6,22,40,23c58,1,62,3,41,19C7324,4309,7275,4304,7251,4274z"/>
	<path d="M7425,4288c-9-31-25-122-25-148c0-64,83-95,128-47c20,21,69,194,58,205c-17,16-34-14-45-80c-15-87-33-118-66-118
		c-40,0-47,28-30,117c8,43,15,79,15,81C7460,4307,7429,4298,7425,4288z"/>
	<path d="M7645,4278c-3-13-14-65-24-115l-18-93h63c50,0,64,3,64,15c0,11-11,15-40,15c-47,0-48,5-25,110c8,36,14,71,15,78
		C7680,4309,7651,4301,7645,4278z"/>
	<path d="M7756,4285c-4-11,2-15,24-15c35,0,37-11,15-110c-8-36-14-71-15-77c0-22,29-14,35,10c8,34,35,168,35,173c0,2,16,4,35,4
		c24,0,35,5,35,15c0,12-15,15-79,15C7780,4300,7761,4297,7756,4285z"/>
	<path d="M7955,4278c-3-13-14-65-24-115c-17-88-17-93-1-93c14,0,21,20,39,108c25,127,25,122,6,122C7967,4300,7958,4290,7955,4278z"
		/>
	<path d="M8055,4278c-3-13-14-65-24-115c-17-88-17-93-1-93c14,0,20,16,30,78c7,42,16,80,19,84c4,5,19-31,35-78c37-114,54-112,78,11
		c10,50,20,100,23,113c4,15,1,22-10,22c-19,0-22-6-38-105l-14-80l-30,90C8092,4298,8066,4326,8055,4278z"/>
	<path d="M8290,4272c-79-79-56-202,38-202c52,0,69,16,77,73l7,47h-36c-25,0-36-4-36-15c0-8,9-15,20-15c23,0,23,0,10-34
		c-7-20-17-26-38-26c-39,0-52,17-52,66c0,31,7,51,27,74c24,30,30,32,70,26c24-3,43-2,43,2c0,18-27,32-63,32
		C8328,4300,8311,4293,8290,4272z"/>
</g>
</svg>
