<svg xmlns="http://www.w3.org/2000/svg" xmlns:xlink="http://www.w3.org/1999/xlink" width="800" height="800" viewBox="0 0 800 800"><defs><clipPath id="b"><rect width="800" height="800"/></clipPath></defs><g id="a" clip-path="url(#b)"><g transform="translate(-2802.607 -3.523)"><circle cx="50.69" cy="50.69" r="50.69" transform="translate(3476.656 267.321)" fill="#f4f7ff" opacity="0.25"/><circle cx="50.69" cy="50.69" r="50.69" transform="translate(2929.667 103.44)" fill="#f4f7ff" opacity="0.25"/><circle cx="25.5" cy="25.5" r="25.5" transform="translate(3322.882 706.058)" fill="#f4f7ff" opacity="0.25"/><circle cx="25.5" cy="25.5" r="25.5" transform="translate(2828.608 352.69)" fill="#f4f7ff" opacity="0.25"/><path d="M343.66-.5c2,0,4.02.017,6.013.051l-.017,1c-1.988-.034-4.006-.051-6-.051Zm-3.542.018.01,1c-1.988.02-4,.058-5.987.112l-.027-1C336.1-.424,338.124-.462,340.118-.482Zm13.559.125c1.994.057,4.014.132,6,.223l-.046,1c-1.985-.091-4-.166-5.987-.223Zm-23.569.119.039,1c-1.987.077-4,.172-5.984.283l-.056-1C326.1-.065,328.114-.161,330.107-.238Zm33.576.311c1.99.114,4.006.247,5.992.4l-.075,1c-1.98-.148-3.99-.281-5.974-.395Zm-43.575.22.067,1c-1.985.134-3.995.287-5.975.456l-.085-1C316.1.582,318.118.428,320.108.293Zm53.564.5c1.986.172,4,.363,5.98.569l-.1.995c-1.976-.205-3.982-.4-5.963-.567Zm-63.542.322.1,1c-1.98.191-3.986.4-5.961.629l-.114-.993C306.132,1.517,308.144,1.3,310.13,1.113Zm73.5.684c1.981.229,3.987.479,5.963.742l-.132.991c-1.97-.263-3.97-.512-5.946-.74Zm-83.458.424.125.992c-1.973.249-3.971.518-5.938.8l-.142-.99C296.194,2.741,298.2,2.47,300.177,2.221Zm93.386.871c1.974.287,3.973.595,5.941.916l-.161.987c-1.962-.32-3.955-.628-5.924-.913Zm-103.3.527.154.988c-1.964.306-3.951.633-5.908.973l-.171-.985C286.3,4.253,288.289,3.925,290.258,3.618ZM403.45,4.675c1.965.344,3.953.71,5.911,1.089l-.19.982c-1.952-.377-3.935-.743-5.893-1.086ZM280.386,5.3l.183.983c-1.954.363-3.932.749-5.879,1.146l-.2-.98C276.443,6.055,278.426,5.668,280.386,5.3Zm132.9,1.244c1.952.4,3.928.825,5.872,1.26l-.218.976c-1.939-.434-3.909-.857-5.855-1.257Zm-142.721.73.211.977c-1.943.42-3.91.864-5.845,1.318l-.229-.974C266.648,8.143,268.62,7.7,270.569,7.277Zm152.5,1.429c1.94.458,3.9.94,5.834,1.432l-.247.969c-1.926-.491-3.883-.971-5.817-1.428Zm-162.255.83.24.971c-1.931.477-3.884.978-5.805,1.489l-.257-.966C256.92,10.518,258.879,10.015,260.815,9.537Zm171.966,1.614c1.926.515,3.875,1.054,5.791,1.6l-.275.961c-1.911-.547-3.854-1.085-5.774-1.6Zm-181.652.931.268.963c-1.915.533-3.852,1.091-5.757,1.658l-.285-.958C247.265,13.176,249.208,12.617,251.129,12.082Zm191.286,1.8c1.911.571,3.843,1.168,5.743,1.773l-.3.953c-1.895-.6-3.821-1.2-5.726-1.767ZM241.521,14.91l.3.955c-1.9.589-3.817,1.2-5.7,1.826l-.313-.95C237.692,16.116,239.617,15.5,241.521,14.91Zm210.446,1.978c1.892.627,3.806,1.28,5.687,1.94l-.331.944c-1.876-.658-3.783-1.309-5.67-1.934ZM232,18.018l.324.946c-1.88.645-3.781,1.315-5.65,1.992l-.341-.94C228.209,19.337,230.115,18.664,232,18.018Zm229.426,2.159c1.873.682,3.766,1.39,5.627,2.105l-.359.933c-1.855-.713-3.743-1.419-5.61-2.1ZM222.577,21.4l.352.936c-1.861.7-3.741,1.425-5.59,2.158l-.368-.93C218.824,22.833,220.711,22.105,222.577,21.4Zm248.209,2.337c1.852.737,3.724,1.5,5.563,2.27l-.386.923c-1.834-.767-3.7-1.528-5.547-2.263ZM213.257,25.064l.379.925c-1.84.754-3.7,1.535-5.525,2.321l-.4-.919C209.547,26.6,211.412,25.82,213.257,25.064Zm266.779,2.513c1.83.791,3.679,1.609,5.5,2.432l-.413.911c-1.811-.82-3.655-1.636-5.479-2.425ZM204.045,29l.406.914c-1.816.807-3.65,1.641-5.452,2.48l-.422-.907C200.384,30.643,202.224,29.806,204.045,29Zm285.123,2.686c1.806.844,3.631,1.716,5.422,2.591l-.439.9c-1.786-.873-3.605-1.742-5.406-2.584ZM194.954,33.2l.433.9c-1.792.86-3.6,1.748-5.378,2.639l-.448-.894C191.342,34.95,193.157,34.059,194.954,33.2ZM498.18,36.054c1.78.9,3.578,1.821,5.342,2.748l-.465.885c-1.76-.925-3.552-1.846-5.327-2.74ZM185.99,37.661l.459.889c-1.766.912-3.549,1.852-5.3,2.8l-.474-.88C182.43,39.518,184.218,38.575,185.99,37.661Zm321.069,3.026c1.754.948,3.524,1.924,5.261,2.9l-.491.871c-1.732-.976-3.5-1.949-5.245-2.894Zm-329.9,1.7.485.875c-1.739.963-3.494,1.955-5.216,2.949l-.5-.866C173.656,44.345,175.416,43.35,177.16,42.384ZM515.8,45.576c1.725,1,3.466,2.026,5.174,3.055l-.516.857c-1.7-1.026-3.439-2.051-5.159-3.046ZM168.471,47.363l.51.86c-1.71,1.013-3.435,2.056-5.127,3.1l-.525-.851C165.026,49.425,166.756,48.379,168.471,47.363Zm355.92,3.354c1.7,1.048,3.406,2.127,5.084,3.2l-.541.841c-1.673-1.075-3.378-2.15-5.069-3.2ZM159.93,52.593l.535.845c-1.68,1.062-3.374,2.155-5.035,3.247l-.549-.836C156.547,54.754,158.246,53.659,159.93,52.593Zm372.9,3.514c1.664,1.1,3.342,2.224,4.987,3.35l-.565.825c-1.641-1.123-3.314-2.247-4.973-3.341ZM151.546,58.069l.559.829c-1.648,1.111-3.31,2.252-4.939,3.392l-.573-.819C148.226,60.327,149.893,59.183,151.546,58.069ZM541.112,61.74c1.632,1.145,3.276,2.32,4.888,3.494l-.589.808c-1.607-1.17-3.247-2.342-4.874-3.484ZM143.324,63.786l.583.813c-1.615,1.158-3.243,2.347-4.839,3.534l-.6-.8C140.071,66.14,141.7,64.947,143.324,63.786Zm405.9,3.824c1.6,1.192,3.208,2.415,4.785,3.634l-.612.791c-1.573-1.216-3.178-2.435-4.771-3.624ZM135.271,69.739l.606.8c-1.581,1.2-3.174,2.44-4.734,3.672l-.62-.785C132.088,72.186,133.686,70.947,135.271,69.739Zm421.893,3.974c1.563,1.238,3.137,2.507,4.678,3.772l-.634.773C559.671,77,558.1,75.731,556.544,74.5Zm-429.77,2.21.629.777c-1.545,1.25-3.1,2.531-4.625,3.808l-.642-.766C124.283,78.461,125.844,77.176,127.394,75.923Zm437.53,4.12c1.526,1.282,3.063,2.6,4.567,3.9l-.657.754c-1.5-1.305-3.031-2.615-4.553-3.894ZM119.7,82.332l.651.759c-1.509,1.294-3.027,2.62-4.513,3.94l-.664-.748C116.664,84.96,118.187,83.63,119.7,82.332ZM572.5,86.6c1.489,1.326,2.986,2.684,4.452,4.036l-.678.735c-1.461-1.348-2.955-2.7-4.439-4.024Zm-460.3,2.366.673.74c-1.471,1.337-2.95,2.706-4.4,4.069l-.685-.728C109.235,91.676,110.719,90.3,112.194,88.962Zm467.684,4.4c1.45,1.369,2.908,2.769,4.333,4.163l-.7.715c-1.422-1.39-2.875-2.786-4.321-4.151ZM104.883,95.805l.694.72c-1.431,1.379-2.871,2.791-4.278,4.195l-.706-.708C102,98.6,103.448,97.189,104.883,95.805Zm482.176,4.538c1.409,1.41,2.826,2.852,4.211,4.286l-.719.695c-1.381-1.43-2.793-2.868-4.2-4.274ZM97.773,102.857l.714.7c-1.391,1.42-2.789,2.872-4.155,4.316l-.726-.687C94.976,105.738,96.378,104.282,97.773,102.857Zm496.263,4.67c1.368,1.45,2.743,2.933,4.085,4.406l-.739.674c-1.339-1.469-2.709-2.948-4.074-4.394ZM90.87,110.112l.734.679c-1.349,1.46-2.7,2.952-4.028,4.435l-.746-.666C88.158,113.073,89.517,111.576,90.87,110.112Zm509.932,4.8c1.326,1.489,2.657,3.011,3.956,4.522l-.758.652c-1.3-1.507-2.623-3.025-3.945-4.509ZM84.18,117.564l.754.657c-1.307,1.5-2.618,3.029-3.9,4.549l-.765-.644C81.554,120.6,82.869,119.066,84.18,117.564Zm523.172,4.922c1.282,1.527,2.568,3.086,3.824,4.635l-.777.63c-1.251-1.544-2.534-3.1-3.812-4.622Zm-529.644,2.72.772.635c-1.263,1.536-2.53,3.1-3.765,4.661l-.783-.622C75.171,128.318,76.441,126.746,77.708,125.206Zm535.972,5.042c1.237,1.563,2.478,3.159,3.688,4.744l-.795.607c-1.206-1.58-2.443-3.171-3.677-4.73ZM71.46,133.032l.79.613c-1.218,1.571-2.439,3.176-3.629,4.768l-.8-.6C69.014,136.216,70.238,134.608,71.46,133.032Zm548.32,5.158c1.192,1.6,2.386,3.23,3.549,4.849l-.812.584c-1.16-1.614-2.351-3.241-3.539-4.835ZM65.441,141.035l.808.589c-1.172,1.606-2.345,3.245-3.489,4.871l-.818-.575C63.089,144.29,64.266,142.646,65.441,141.035ZM625.648,146.3c1.145,1.633,2.291,3.3,3.407,4.95l-.829.56c-1.113-1.647-2.255-3.308-3.4-4.935ZM59.657,149.211l.825.566c-1.125,1.639-2.25,3.311-3.346,4.969l-.834-.551C57.4,152.532,58.529,150.855,59.657,149.211Zm571.621,5.376c1.1,1.665,2.194,3.363,3.261,5.046l-.845.535c-1.064-1.679-2.158-3.371-3.252-5.032ZM54.112,157.55l.841.542c-1.077,1.671-2.154,3.376-3.2,5.065l-.85-.527C51.953,160.935,53.033,159.226,54.112,157.55Zm582.552,5.479c1.048,1.7,2.1,3.425,3.113,5.139l-.86.511c-1.015-1.709-2.059-3.432-3.1-5.124ZM48.813,166.047l.856.517c-1.028,1.7-2.054,3.437-3.052,5.156l-.865-.5C46.753,169.494,47.782,167.754,48.813,166.047Zm592.99,5.577c1,1.726,2,3.485,2.963,5.229l-.874.485c-.965-1.738-1.959-3.492-2.954-5.213Zm-598.04,3.07.871.492c-.977,1.731-1.953,3.5-2.9,5.242l-.879-.476C41.8,178.2,42.782,176.431,43.763,174.694Zm602.926,5.671c.948,1.755,1.893,3.542,2.809,5.312l-.888.46c-.914-1.765-1.856-3.547-2.8-5.3ZM38.966,183.486l.885.466c-.926,1.759-1.85,3.55-2.745,5.324l-.893-.451C37.111,187.047,38.037,185.25,38.966,183.486Zm612.352,5.759c.9,1.781,1.788,3.6,2.652,5.391l-.9.434c-.862-1.791-1.751-3.6-2.645-5.376ZM34.429,192.413l.9.44c-.875,1.785-1.746,3.6-2.589,5.4l-.906-.424C32.678,196.027,33.551,194.2,34.429,192.413Zm621.258,5.844c.843,1.806,1.682,3.645,2.493,5.466l-.913.407c-.809-1.815-1.645-3.649-2.486-5.45ZM30.154,201.469l.91.414c-.822,1.81-1.64,3.653-2.43,5.477l-.918-.4C28.51,205.133,29.33,203.284,30.154,201.469Zm629.635,5.924c.79,1.831,1.575,3.694,2.333,5.538l-.925.38c-.756-1.839-1.538-3.7-2.326-5.522ZM26.146,210.646l.922.387c-.769,1.833-1.532,3.7-2.269,5.545l-.929-.371C24.61,214.356,25.375,212.485,26.146,210.646Zm637.476,6c.736,1.853,1.466,3.739,2.17,5.6l-.936.353c-.7-1.86-1.429-3.74-2.163-5.588ZM22.408,219.938l.933.36c-.715,1.855-1.423,3.741-2.1,5.608l-.939-.343C20.981,223.69,21.692,221.8,22.408,219.938ZM667.183,226c.682,1.874,1.356,3.779,2,5.664l-.946.325c-.647-1.88-1.319-3.78-2-5.648ZM18.944,229.334l.943.332c-.66,1.875-1.313,3.782-1.94,5.668L17,235.019C17.628,233.127,18.282,231.215,18.944,229.334Zm651.524,6.13c.626,1.892,1.244,3.817,1.837,5.72l-.955.3c-.591-1.9-1.207-3.816-1.832-5.7ZM15.758,238.827l.953.3c-.605,1.894-1.2,3.82-1.773,5.725l-.958-.287C14.553,242.658,15.151,240.727,15.758,238.827Zm657.717,6.191c.57,1.91,1.132,3.852,1.669,5.772l-.963.269c-.535-1.914-1.095-3.85-1.664-5.755ZM12.851,248.41l.961.276c-.549,1.911-1.089,3.853-1.6,5.773l-.966-.259C11.759,252.274,12.3,250.326,12.851,248.41ZM676.2,254.653c.514,1.927,1.019,3.885,1.5,5.821l-.971.241c-.479-1.93-.982-3.883-1.495-5.8ZM10.226,258.075l.969.248c-.493,1.925-.975,3.882-1.434,5.816l-.973-.231C9.248,261.968,9.732,260.005,10.226,258.075Zm668.414,6.29c.458,1.94.9,3.912,1.328,5.861l-.977.212c-.422-1.943-.868-3.909-1.324-5.844ZM7.885,267.814l.976.219c-.436,1.938-.861,3.908-1.263,5.854l-.979-.2C7.022,271.733,7.448,269.757,7.885,267.814ZM680.8,274.145c.4,1.952.789,3.936,1.156,5.9l-.983.184c-.365-1.954-.753-3.932-1.152-5.879ZM5.831,277.614l.982.191c-.379,1.951-.746,3.933-1.092,5.891l-.985-.174C5.082,281.558,5.451,279.57,5.831,277.614Zm676.834,6.372c.343,1.962.674,3.956.982,5.925l-.988.155c-.308-1.963-.638-3.951-.98-5.908Zm-678.6,3.484.987.162c-.322,1.962-.632,3.955-.92,5.923l-.989-.145C3.431,291.436,3.741,289.437,4.064,287.469Zm680.181,6.4c.286,1.972.558,3.975.81,5.954l-.992.126c-.251-1.972-.522-3.97-.807-5.936Zm-681.659,3.5.991.133c-.265,1.97-.516,3.97-.746,5.945l-.993-.116C2.068,301.355,2.32,299.349,2.586,297.373ZM685.537,303.8c.228,1.981.443,3.992.637,5.979l-1,.1c-.194-1.98-.407-3.986-.635-5.961ZM1.4,307.318l.994.1c-.207,1.976-.4,3.982-.573,5.963l-1-.087C.995,311.311,1.188,309.3,1.4,307.318Zm685.143,6.447c.171,1.986.327,4,.463,5.992l-1,.068c-.136-1.985-.292-3.995-.462-5.975ZM.495,317.294l1,.076c-.15,1.98-.285,3.99-.4,5.974l-1-.058C.209,321.3.345,319.279.495,317.294Zm686.759,6.461c.113,1.989.211,4.008.29,6l-1,.04c-.079-1.987-.176-4-.289-5.984ZM-.117,327.289l1,.047c-.093,1.984-.17,4-.229,5.985l-1-.03C-.288,331.3-.211,329.279-.117,327.289Zm687.8,6.472c.056,1.991.1,4.011.118,6l-1,.011c-.022-1.988-.062-4-.118-5.987ZM-.442,337.3l1,.018c-.036,1.988-.055,4-.057,5.995h-1C-.5,341.311-.478,339.288-.442,337.3Zm687.262,6.482h1c0,2-.019,4.019-.054,6.013l-1-.017C686.8,347.785,686.819,345.768,686.82,343.777ZM.519,347.309c.021,1.988.059,4,.114,5.987l-1,.028c-.055-1.991-.093-4.011-.114-6Zm686.155,6.456,1,.029c-.058,1.994-.133,4.013-.225,6l-1-.046C686.541,357.767,686.617,355.753,686.674,353.765ZM.766,357.291c.078,1.987.174,4,.285,5.984l-1,.056c-.112-1.989-.208-4.008-.286-6Zm685.476,6.451,1,.058c-.115,1.99-.249,4.006-.4,5.992l-1-.075C685.994,367.737,686.128,365.727,686.242,363.743ZM1.3,367.261c.135,1.985.289,3.995.458,5.975l-1,.085c-.17-1.986-.324-4-.459-5.992ZM685.523,373.7l1,.086c-.172,1.986-.364,4-.571,5.98l-.995-.1C685.16,377.689,685.351,375.683,685.523,373.7ZM2.119,377.21c.192,1.98.4,3.986.631,5.961l-.994.114c-.227-1.981-.44-3.992-.633-5.979Zm682.4,6.426.993.115c-.23,1.981-.48,3.987-.745,5.963l-.991-.133C684.038,387.612,684.287,385.611,684.516,383.636Zm-681.289,3.5c.249,1.973.52,3.971.8,5.938l-.99.143c-.285-1.973-.556-3.976-.806-5.955Zm679.994,6.4.99.144c-.287,1.974-.6,3.973-.918,5.941l-.987-.161C682.627,397.5,682.935,395.5,683.222,393.535Zm-678.6,3.489c.307,1.964.635,3.951.975,5.908l-.985.172c-.342-1.963-.671-3.956-.978-5.926Zm677.015,6.37.985.173c-.345,1.964-.712,3.953-1.091,5.91l-.982-.19C680.93,407.335,681.3,405.352,681.639,403.393ZM6.309,406.866c.364,1.954.75,3.932,1.148,5.879l-.98.2c-.4-1.953-.786-3.936-1.151-5.9ZM679.769,413.2l.979.2c-.4,1.952-.826,3.928-1.262,5.872l-.976-.219C678.945,417.12,679.369,415.15,679.769,413.2Zm-671.49,3.45c.421,1.943.865,3.91,1.32,5.845l-.973.229c-.456-1.941-.9-3.913-1.324-5.862Zm669.334,6.3.973.23c-.459,1.94-.941,3.9-1.434,5.834l-.969-.247C676.675,426.845,677.156,424.888,677.613,422.954ZM10.536,426.379c.478,1.93.979,3.883,1.491,5.8l-.966.257c-.513-1.927-1.016-3.886-1.5-5.822Zm664.637,6.257.966.259c-.516,1.926-1.056,3.874-1.605,5.791l-.961-.276C674.12,436.5,674.659,434.556,675.173,432.635Zm-662.1,3.4c.534,1.915,1.092,3.852,1.66,5.756l-.958.286c-.569-1.911-1.129-3.853-1.665-5.773Zm659.373,6.2.958.287c-.572,1.91-1.169,3.843-1.775,5.743l-.953-.3C671.284,446.071,671.88,444.145,672.45,442.24ZM15.9,445.615c.59,1.9,1.2,3.817,1.828,5.7l-.95.313c-.625-1.893-1.241-3.817-1.833-5.721Zm653.546,6.149.949.315c-.628,1.892-1.281,3.805-1.942,5.686l-.944-.331C668.169,455.558,668.82,453.65,669.446,451.763ZM19,455.106c.645,1.88,1.316,3.781,1.994,5.649l-.94.341c-.68-1.874-1.353-3.78-2-5.666Zm647.162,6.089.939.342c-.683,1.873-1.392,3.765-2.107,5.626l-.933-.359C664.776,464.949,665.483,463.062,666.164,461.195ZM22.381,464.5c.7,1.861,1.427,3.741,2.16,5.589l-.93.369c-.735-1.854-1.464-3.74-2.166-5.606Zm640.226,6.024.929.37c-.737,1.852-1.5,3.724-2.271,5.563l-.922-.386C661.11,474.238,661.872,472.371,662.607,470.525ZM26.034,473.793c.754,1.839,1.536,3.7,2.323,5.524l-.918.4c-.789-1.831-1.573-3.7-2.329-5.54Zm632.745,5.953.918.4c-.791,1.83-1.61,3.679-2.434,5.495l-.911-.413C657.173,483.414,657.989,481.57,658.778,479.746Zm-628.82,3.23c.808,1.816,1.643,3.65,2.482,5.451l-.906.422c-.842-1.807-1.68-3.646-2.49-5.467Zm624.723,5.876.906.424c-.844,1.806-1.717,3.63-2.593,5.421l-.9-.439C652.97,492.471,653.84,490.652,654.682,488.851ZM34.149,492.039c.86,1.791,1.749,3.6,2.641,5.377l-.894.449c-.895-1.782-1.786-3.6-2.649-5.393Zm616.171,5.8.893.45c-.9,1.78-1.822,3.577-2.75,5.342l-.885-.465C648.5,501.4,649.426,499.609,650.32,497.835ZM38.6,500.975c.912,1.766,1.854,3.549,2.8,5.3l-.88.475c-.946-1.755-1.89-3.543-2.805-5.314Zm607.095,5.71.88.476c-.948,1.753-1.926,3.523-2.9,5.26l-.871-.491C643.778,510.2,644.752,508.434,645.7,506.686ZM43.315,509.778c.964,1.739,1.956,3.493,2.951,5.215l-.866.5c-1-1.727-1.993-3.487-2.959-5.231Zm597.5,5.62.865.5c-1,1.725-2.028,3.466-3.057,5.173l-.856-.516C638.8,518.853,639.824,517.118,640.82,515.4ZM48.283,518.44c1.014,1.709,2.057,3.434,3.1,5.126l-.851.525c-1.047-1.7-2.093-3.426-3.109-5.141Zm587.408,5.524.85.526c-1.049,1.7-2.128,3.405-3.206,5.083l-.841-.541C633.569,527.36,634.645,525.655,635.691,523.964ZM53.5,526.954c1.063,1.679,2.156,3.373,3.248,5.034l-.836.549c-1.1-1.666-2.192-3.364-3.258-5.048Zm576.813,5.425.835.551c-1.1,1.664-2.225,3.341-3.352,4.986l-.825-.565C628.095,535.711,629.219,534.038,630.313,532.379Zm-571.35,2.934c1.112,1.648,2.253,3.309,3.394,4.938l-.819.573c-1.144-1.633-2.289-3.3-3.4-4.952Zm565.731,5.321.818.575c-1.145,1.631-2.322,3.276-3.5,4.887l-.808-.589C622.38,543.9,623.552,542.26,624.694,540.633ZM64.666,543.508c1.159,1.615,2.348,3.243,3.536,4.838l-.8.6c-1.191-1.6-2.384-3.232-3.546-4.852Zm554.172,5.213.8.6c-1.192,1.6-2.416,3.207-3.636,4.784l-.791-.612C616.43,551.919,617.65,550.314,618.839,548.721ZM70.605,551.536c1.205,1.581,2.441,3.173,3.674,4.732l-.785.62c-1.236-1.564-2.476-3.161-3.684-4.746Zm542.145,5.1.784.621c-1.238,1.562-2.508,3.136-3.773,4.677l-.773-.635C610.25,559.762,611.516,558.193,612.751,556.635ZM76.774,559.388c1.25,1.545,2.532,3.1,3.809,4.624l-.766.642c-1.281-1.528-2.566-3.088-3.82-4.638Zm529.662,4.983.765.643c-1.283,1.526-2.6,3.062-3.907,4.565l-.754-.657C603.846,567.423,605.157,565.892,606.436,564.37ZM83.167,567.058c1.295,1.508,2.621,3.026,3.942,4.512l-.747.664c-1.325-1.49-2.655-3.013-3.953-4.525ZM599.9,571.92l.746.665c-1.327,1.488-2.685,2.985-4.037,4.45l-.735-.678C597.223,574.9,598.577,573.4,599.9,571.92ZM89.78,574.54c1.338,1.47,2.707,2.949,4.071,4.4l-.728.686c-1.367-1.451-2.741-2.935-4.082-4.409Zm503.368,4.737.727.687c-1.369,1.449-2.77,2.907-4.164,4.332l-.715-.7C590.386,582.175,591.783,580.721,593.148,579.276ZM96.607,581.827c1.38,1.431,2.792,2.87,4.2,4.277l-.708.706c-1.409-1.411-2.824-2.854-4.208-4.289Zm489.58,4.608.707.707c-1.41,1.409-2.853,2.825-4.288,4.21l-.694-.72C583.342,589.252,584.78,587.84,586.187,586.435Zm-482.546,2.479c1.421,1.39,2.873,2.788,4.318,4.154l-.687.727c-1.449-1.37-2.906-2.771-4.33-4.166Zm475.38,4.475.686.728c-1.451,1.368-2.934,2.742-4.408,4.084l-.673-.739C576.1,596.123,577.575,594.753,579.021,593.389Zm-468.144,2.406c1.46,1.349,2.953,2.7,4.436,4.027l-.666.746c-1.488-1.327-2.985-2.686-4.449-4.039Zm460.78,4.338.665.747c-1.49,1.325-3.012,2.656-4.524,3.955l-.652-.759C568.655,602.781,570.172,601.454,571.657,600.133Zm-453.348,2.33c1.5,1.306,3.03,2.617,4.551,3.9l-.644.765c-1.525-1.283-3.061-2.6-4.564-3.908Zm445.792,4.2.643.766c-1.527,1.281-3.087,2.567-4.636,3.822l-.629-.777C561.023,609.221,562.579,607.939,564.1,606.661Zm-438.171,2.253c1.536,1.262,3.1,2.529,4.662,3.764l-.621.784c-1.562-1.239-3.135-2.509-4.675-3.775Zm430.429,4.054.62.784c-1.564,1.237-3.16,2.477-4.745,3.686l-.607-.795C553.209,615.438,554.8,614.2,556.36,612.968Zm-422.624,2.173c1.572,1.217,3.176,2.438,4.769,3.627l-.6.8c-1.6-1.193-3.206-2.417-4.783-3.638Zm414.7,3.907.6.8c-1.6,1.191-3.231,2.385-4.85,3.547l-.583-.812C545.218,621.426,546.845,620.236,548.44,619.048Zm-406.72,2.092c1.606,1.171,3.246,2.344,4.872,3.487l-.575.818c-1.631-1.146-3.275-2.323-4.886-3.5ZM540.346,624.9l.574.819c-1.633,1.144-3.3,2.29-4.951,3.4l-.56-.829C537.057,627.179,538.718,626.037,540.346,624.9Zm-390.473,2.009c1.64,1.124,3.312,2.249,4.971,3.344l-.551.835c-1.663-1.1-3.341-2.226-4.985-3.354Zm382.213,3.6.55.835c-1.665,1.1-3.364,2.193-5.047,3.26l-.535-.845C528.732,632.693,530.425,631.6,532.086,630.507Zm-373.9,1.924c1.672,1.076,3.377,2.152,5.067,3.2l-.526.85c-1.695-1.05-3.4-2.129-5.081-3.208Zm365.476,3.445.525.851c-1.7,1.047-3.426,2.094-5.14,3.111l-.51-.86C520.25,637.963,521.974,636.919,523.666,635.875Zm-357,1.836c1.7,1.027,3.438,2.053,5.157,3.05l-.5.865c-1.725-1-3.465-2.029-5.172-3.059ZM515.094,641l.5.866c-1.727,1-3.486,1.994-5.23,2.961l-.485-.874C511.618,642.984,513.373,641.99,515.094,641Zm-339.806,1.748c1.731.977,3.5,1.952,5.243,2.9l-.476.879c-1.753-.949-3.522-1.927-5.259-2.907Zm331.089,3.121.475.88c-1.755.947-3.542,1.891-5.313,2.807l-.459-.888C502.845,647.75,504.627,646.809,506.377,645.865Zm-322.321,1.659c1.759.926,3.551,1.849,5.325,2.744l-.45.893c-1.78-.9-3.577-1.823-5.341-2.752Zm313.465,2.954.449.894c-1.781.9-3.6,1.787-5.392,2.65l-.433-.9C493.936,652.259,495.745,651.37,497.521,650.478Zm-304.563,1.567c1.786.874,3.6,1.745,5.4,2.587l-.424.906c-1.806-.845-3.629-1.718-5.42-2.595Zm295.575,2.786.423.906c-1.807.843-3.646,1.681-5.467,2.491l-.407-.914C484.9,656.506,486.732,655.67,488.533,654.83ZM201.989,656.3c1.811.822,3.654,1.639,5.478,2.428l-.4.918c-1.83-.792-3.678-1.611-5.494-2.436Zm277.435,2.614.4.918c-1.831.79-3.695,1.574-5.539,2.331l-.38-.925C475.74,660.487,477.6,659.7,479.424,658.917ZM211.141,660.3c1.833.768,3.7,1.531,5.546,2.267l-.37.929c-1.852-.738-3.723-1.5-5.562-2.273Zm259.058,2.44.369.929c-1.853.736-3.739,1.465-5.605,2.168l-.352-.936C466.47,664.2,468.351,663.47,470.2,662.736Zm-249.792,1.284c1.855.714,3.742,1.422,5.609,2.1l-.343.939c-1.872-.683-3.765-1.393-5.625-2.109Zm240.458,2.263.342.94c-1.874.681-3.78,1.355-5.665,2l-.325-.946C457.1,667.634,459,666.963,460.865,666.284Zm-231.088,1.188c1.875.659,3.782,1.311,5.669,1.938l-.315.949c-1.892-.628-3.8-1.282-5.685-1.943Zm221.653,2.085.314.95c-1.892.625-3.817,1.243-5.72,1.835l-.3-.955C447.624,670.8,449.543,670.18,451.43,669.556Zm-212.187,1.089c1.894.6,3.821,1.2,5.725,1.771l-.287.958c-1.91-.573-3.842-1.17-5.742-1.777ZM441.9,672.55l.286.958c-1.91.57-3.852,1.131-5.773,1.667l-.269-.963C438.063,673.678,440,673.118,441.9,672.55Zm-193.106.99c1.911.548,3.853,1.088,5.773,1.6l-.259.966c-1.926-.516-3.874-1.057-5.79-1.607Zm183.5,1.723.258.966c-1.927.514-3.886,1.017-5.822,1.5l-.241-.971C428.422,676.278,430.375,675.776,432.3,675.263Zm-173.861.891c1.925.492,3.882.974,5.816,1.432l-.23.973c-1.94-.46-3.9-.943-5.834-1.436Zm164.176,1.54.229.973c-1.941.457-3.913.9-5.861,1.326l-.212-.977C418.711,678.594,420.677,678.149,422.612,677.694Zm-154.465.791c1.938.435,3.908.859,5.854,1.261l-.2.979c-1.952-.4-3.927-.828-5.872-1.264ZM412.86,679.84l.2.98c-1.952.4-3.936.788-5.9,1.153l-.183-.983C408.935,680.625,410.913,680.239,412.86,679.84Zm-134.94.69c1.951.379,3.934.745,5.892,1.09l-.173.985c-1.964-.345-3.952-.713-5.909-1.093Zm125.128,1.17.172.985c-1.963.342-3.956.672-5.925.98l-.155-.988C399.1,682.37,401.09,682.041,403.047,681.7Zm-115.3.588c1.962.322,3.955.63,5.923.917l-.144.99c-1.974-.288-3.973-.6-5.941-.92Zm105.441.985.143.99c-1.973.285-3.976.557-5.954.808l-.126-.992C389.223,683.828,391.221,683.557,393.188,683.272Zm-95.565.486c1.97.264,3.97.515,5.946.744l-.116.993c-1.981-.231-3.987-.482-5.963-.747Zm85.665.8.114.993c-1.981.228-3.992.441-5.979.635l-.1-1C379.306,685,381.312,684.784,383.287,684.557Zm-75.749.385c1.976.207,3.982.4,5.963.571l-.087,1c-1.986-.173-4-.366-5.98-.573Zm65.814.612.085,1c-1.986.17-4,.325-5.992.461l-.068-1C369.362,685.878,371.372,685.723,373.353,685.553Zm-55.867.283c1.98.149,3.99.283,5.974.4l-.058,1c-1.99-.116-4.006-.25-5.992-.4Zm45.906.425.057,1c-1.989.113-4.008.21-6,.288l-.039-1C359.4,686.471,361.409,686.375,363.392,686.262Zm-35.94.182c1.984.092,4,.169,5.986.227l-.029,1c-1.993-.058-4.013-.135-6-.227Zm25.961.24.028,1c-1.991.056-4.011.095-6,.116l-.011-1C349.414,686.778,351.429,686.739,353.413,686.684Zm-15.983.08c1.988.035,4,.054,6,.055v1c-2,0-4.019-.02-6.013-.055Z" transform="translate(2856.625 74.82)" fill="#fff"/><path d="M3156.109,684.914l-55.3,25.488v5.646h196.93V710.4l-55.8-25.488Z" fill="#6585fd"/><rect width="85.872" height="109.292" transform="translate(3156.109 575.669)" fill="#6585fd"/><path d="M3458.893,609.955V363.5a21.2,21.2,0,0,0-21.2-21.2H2959.843a21.2,21.2,0,0,0-21.2,21.2V609.955Z" fill="#6585fd"/><rect width="196.93" height="5.646" transform="translate(3100.813 710.402)" fill="#1a2a60"/><rect width="85.837" height="12.825" transform="translate(3156.109 672.089)" fill="#1a2a60"/><path d="M2938.64,609.955v39.492c0,8.215,5.43,14.875,12.129,14.875h496c6.7,0,12.128-6.66,12.128-14.875V609.955Z" fill="#6585fd"/><path d="M3446.714,599.252V364.161A11.364,11.364,0,0,0,3435.154,353H2962.379a11.364,11.364,0,0,0-11.56,11.158V599.252Z" fill="#fff"/><path d="M3270.653,579.958H2972.6l3-207.977h295.057Z" fill="#f4f7ff"/><path d="M3340.244,581.49H3319.9l3-117.331h20.345Z" fill="#6585fd" style="mix-blend-mode:multiply;isolation:isolate"/><path d="M3397.069,581.49h-20.345l3-144.115h20.345Z" fill="#6585fd" style="mix-blend-mode:multiply;isolation:isolate"/><path d="M3368.656,581.49h-20.345l3-100.157h20.345Z" fill="#fc5409"/><path d="M3425.891,581.49h-20.345l3-112.892h20.345Z" fill="#ff58de"/><path d="M3311.831,581.49h-20.345l3-82.543h20.345Z" fill="#8acbfa"/><path d="M3257.987,432.157H2982.88l1-35.31h275.107Z" fill="#6585fd"/><path d="M3069.987,546.628H2982.88l1-104.442h87.108Z" fill="#fc5409"/><path d="M3058.628,258.884c.6.025,2.231.572,4.621,5.089,3.052,5.768,7.513,23.194,7.513,23.194l-13.316,4.959-1.71-3.637-2.818-28S3058.463,258.878,3058.628,258.884Z" fill="#6585fd"/><path d="M3041.026,256.373c3.807.005,13.229,1.116,17.6,2.513,0,0,3.212,27.61-2.892,48.59-1.367,4.7,1.13,19.468,1.13,19.468l-39.457-.52s4.675-35.712,2.914-41.481-1.8-25.871-1.8-25.871.27-.043,8.865-1.528A89.217,89.217,0,0,1,3041.026,256.373Z" fill="#6585fd"/><path d="M3036.428,378.19s.873,10.075,2.478,12.865-.085,7.532-.169,8.184-3.379,1.58-8.616,1.022-5.153-1.767-4.73-3.719,3.21-4.464,3.379-6.324-1.6-8.556-1.6-8.556Z" fill="#b56f40"/><path d="M3052.414,318.629s27.237-1.513,33.319,2.171-4.321,21.762-4.321,21.762-18.953-.874-56.075,1.269c-8.791.507-9.548-22.921-7.9-24.86S3052.414,318.629,3052.414,318.629Z" fill="#5e6289"/><path d="M3029.468,401.043c-5.393-.574-4.726-3.224-4.291-5.235.272-1.259,1.819-2.743,2.741-4.147a8.987,8.987,0,0,0,3.608,1.753c2.432.719,5.766-.7,7.89-1.593a25.988,25.988,0,0,1,.721,6.956C3040.05,399.447,3034.861,401.618,3029.468,401.043Z" fill="#1a2a60"/><path d="M3032.445,338.114c1.088,8.235,6.476,49.227,6.476,49.227l-12.5,1.55s-15.373-53.505-14.585-61.689,6.543-8.872,6.543-8.872S3029.564,316.317,3032.445,338.114Z" fill="#5e6289"/><path d="M3018.09,262.14c3.69-1.384,5.494,31.856,5.992,45.538,6.532.628,17.919.005,20.755-.208,1.333-.1,4.408-1.226,5.734-1.4a13.3,13.3,0,0,1,3.259-.155c.245.043,7.055,2.828,7.637,3.439.723.757,2.676,2.667,2.346,3.493s-3.756-2.3-3.756-2.3l-1.674-.94c2.084,2.037,6.06,4.719,5.488,5.7-.559.953-4.146-1.769-6.7-3.624,2.193,1.98,4.917,5.524,4.289,6.077-.564.5-3.662-3.607-6.974-4.788-1.227-.438-2.45.775-3.416.921a6.913,6.913,0,0,1-2.5.139l-3.586-1.016c-1.221.11-1.252.833-2.485,1.1-1.432.3-3.781.626-5.6,1.071-10.5,2.566-14,3.757-17.218,3.755C3009.936,318.925,3009.372,265.411,3018.09,262.14Z" fill="#b56f40"/><path d="M3011.089,293.347c-.691-14.014-.59-31.288,7.266-34.235,3.1-1.163,8.564,5.829,7.582,34.519C3021.743,293.978,3015.586,294.257,3011.089,293.347Z" fill="#6585fd"/><path d="M3074.291,387.96s-1.8,3.188-.385,5.861,8.874,6.606,9.651,8.056a3.506,3.506,0,0,1,.472,2.475l-22.133-5.426,1.7-6.672,2.07-4.61Z" fill="#b56f40"/><path d="M3075.047,395.248s-6.221,1.078-8.689-.89-2.3-2.329-3.212-1.991c-.585.217-1.475,2.874-2.036,4.745a1.819,1.819,0,0,0,1.308,2.287l23.047,5.7c1.751.336,2.91-.756,1.732-2.161a20.907,20.907,0,0,0-2.379-2.213C3083.1,399.174,3075.047,395.248,3075.047,395.248Z" fill="#1a2a60"/><path d="M3072.122,325.085c1.76-3.7,5.765-8.529,12.81-5.624,6.72,2.771,8.524,9.582,6.4,16.556s-16.078,47.97-16.565,53.607l-11.144.074s2.025-32.462,2.522-40.308C3066.627,341.84,3069.074,331.5,3072.122,325.085Z" fill="#5e6289"/><path d="M3090.213,287.325H3052.96a2.43,2.43,0,0,0-2.247,1.513l-11.471,28.071h-20.537a1.041,1.041,0,0,0-1.04,1.043h0a1.04,1.04,0,0,0,1.04,1.042h58.452a4.078,4.078,0,0,0,3.722-2.417l11.55-25.816A2.437,2.437,0,0,0,3090.213,287.325Z" fill="#fc5409"/><path d="M3070.156,303.671a2.051,2.051,0,1,1-1.537-2.682A2.193,2.193,0,0,1,3070.156,303.671Z" fill="#fff"/><path d="M3049.879,222.651a28.674,28.674,0,0,1-3.3-1.32,16.563,16.563,0,0,0-3.757-1.416c-2.079-.321-5.651-.107-7.623,2.033-2.458,2.665-6.824.481-5.944,14.442.995,15.8,9.782,14.068,9.995,13.8s7.836-10.109,7.836-10.109,2.666,5.83,2.666,5.616S3063.365,227.192,3049.879,222.651Z" fill="#1a1534"/><path d="M3043.208,251.358l.759,5.646s1.7,8.135-.487,9.7-9.3-9.935-9.3-9.935l.751-14.308Z" fill="#b56f40"/><path d="M3034.692,247.1a16.2,16.2,0,0,0,9.16,9.044l-.644-4.787-8.273-8.894Z" fill="#584c4c"/><path d="M3042.759,226.9a7.529,7.529,0,0,1,8.671,7.614,57.082,57.082,0,0,1-.634,7.242c-1.007,6.519-5.454,12.258-8.4,11.745s-10.339-6.135-9.036-15.41C3034.169,232.359,3037.9,227.68,3042.759,226.9Z" fill="#b56f40"/><path d="M3035.405,239.193a2.192,2.192,0,1,1-1.666-2.964A2.424,2.424,0,0,1,3035.405,239.193Z" fill="#b56f40"/><path d="M3033.739,236.229s3.556.883,4.875-1.4,6.037-7.222,12.035-5.176-5.278-4.974-5.758-4.974-6.237-.04-6.237-.04-4.438,3.65-4.6,4.052-1.439,4.774-1.439,4.774Z" fill="#1a1534"/><path d="M2904.623,691.174s-1.184,8.259-3.221,10.924a21.081,21.081,0,0,0-2.752,3.643c-1.276,2.517-.571,6.263.37,8.327.484,1.059-.034,1.056,1.067,1.4a6.746,6.746,0,0,0,8.111-3.829,19.546,19.546,0,0,0,1.591-7.038c.348-7.5,2.667-11.312,2.667-11.312Z" fill="#f1ccc6"/><path d="M2940.258,694.952s.731,9.313.138,12.339c-.318,1.621-2.087,4.957-1.275,6.482a4.078,4.078,0,0,0,1.739,1.907l21.035.341c1.146.018.389-.723-.535-1.406-1.512-1.119-2.733-1.858-7.563-4.208-.315-.153-1.463-.887-1.876-1.141a14.592,14.592,0,0,1-3.009-2.673c-1.51-1.691-1.642-9.892-1.642-9.892Z" fill="#f1ccc6"/><path d="M2956.7,571.158s2.649,15.121.91,25.034-10.087,101.8-10.087,101.8l-9.277.526s-1.944-38.383-1.6-43.721,3.1-14.271,3.1-14.271l-.923-30.99,11.706-40.713Z" fill="#fc5409"/><path d="M2929.434,567.978s-7.3,11.056-9.043,20.207,1.276,37.273-2.069,49.264c-1.811,6.491-8.675,16.516-9.719,24.9s-5.137,30.36-5.137,30.36l9.272,1.849,21.55-54.874,16.9-49.6,4.33-25.544Z" fill="#fc5409"/><path d="M2908.83,709.985c-5.054.927-8.416-2.046-10.166-4.272-1.284,2.521-1.911,6.284-.966,8.355.832,1.824,3.264,1.772,5.178,1.843a4.994,4.994,0,0,0,4.595-2.828A16.994,16.994,0,0,0,2908.83,709.985Z" fill="#f4f7ff"/><path d="M2951.918,709.264a18.937,18.937,0,0,1-11.976-.473c-.593,1.691-1.379,3.813-.962,5.036.51,1.5,1.238,1.836,1.88,1.853,5.081.134,18.613.317,22.488.368a.637.637,0,0,0,.491-1.047C2962.879,713.847,2952.333,709.519,2951.918,709.264Z" fill="#f4f7ff"/><path d="M2989.994,545.039c.387-.824-3.7-1.946-3.831-2.834s5.347-.387,5.621-1.127c.506-1.362-5.965-.916-5.773-1.558s6.845-1.43,6.259-2.626-6.812,1.537-6.911.757,6.019-2.021,6.086-3.7c.036-.9-10.186,3.445-11.257,2.843s1.692-4.558.864-5.273-4.416,7.558-5.064,7.8-14.673,4.482-19.443,5.185c-.4-1.615-3.989-10.5-4.334-12.026-2.8,1.586-6.368-.322-9.235,1.09,1.443,5.088,4.682,21.847,5.977,22.6,3.942,2.3,24.682-8.658,28.11-10.6s5.184-1.014,7.419-1.508S2989.607,545.863,2989.994,545.039Z" fill="#f1ccc6"/><path d="M2953.09,495.671c1.043-4.743,2.065-9.515-.685-14.725a13.376,13.376,0,0,0-10.526-7.17c-12.617-1.5-9.921,10.282-27.555,12.831-5.479.793-10.57,1.554-15.145,4.279-8.261,4.921-11.379,12.815-5.9,25.674,13.414,31.489,45.513,4.126,50.409-1.443C2948.547,509.59,2952.418,498.723,2953.09,495.671Z" fill="#fc5409"/><path d="M2933.232,510.639s-6.371.723-10.181,4.868,6.159,37.465,6.852,42.741-6.626,19.876-6.626,19.876,24.878,4.946,31.345.675c0,0,.568-40.776-.125-44.545s-6.467-19.093-7.852-20.6S2933.232,510.639,2933.232,510.639Z" fill="#5e6289"/><path d="M2936.439,497.794s-.05.283-.14.765c-.429,2.311-2.083,9.978-3.2,12.085-1.35,2.547,4.622,10.671,10.371,9.68,1.711-.295-1.447-7.465-1.295-8.224.29-1.454.684-3.437,1.087-5.47.228-1.147.458-2.31.674-3.4.615-3.107,1.117-5.647,1.117-5.647Z" fill="#f1ccc6"/><path d="M2936.3,498.559c.09-.482.14-.765.14-.765l8.614-.214s-.5,2.54-1.117,5.647l-.67,3.384a8.084,8.084,0,0,1-4.113-2.058,10.839,10.839,0,0,1-3.115-4.624C2936.144,499.386,2936.233,498.917,2936.3,498.559Z" fill="#f1ccc6"/><path d="M2941.62,477.321a10.164,10.164,0,0,0-6.058,3.772c-2.545,3.286-5.288,13.444,1.034,18.967s12.569-.728,13.5-7.357S2950.83,477.082,2941.62,477.321Z" fill="#f1ccc6"/><path d="M2951.934,491.066c-.4,1.6-1.445,2.678-2.338,2.412s-1.293-1.778-.9-3.376,1.446-2.678,2.339-2.411S2952.333,489.468,2951.934,491.066Z" fill="#f1ccc6"/><path d="M2945.522,477.35s-8.256,9.478-12.136,9.925-4.39,5.579-4.39,5.579,1.387-11.828,5.229-14.109S2945.522,477.35,2945.522,477.35Z" fill="#fc5409"/><path d="M2934.655,489.576c.315,1.716-.319,3.289-1.418,3.514s-2.245-.983-2.56-2.7.319-3.288,1.417-3.513S2934.339,487.861,2934.655,489.576Z" fill="#f1ccc6"/><path d="M1.468,0H37.436A1.467,1.467,0,0,1,38.9,1.467V28.428A1.468,1.468,0,0,1,37.436,29.9H1.467A1.467,1.467,0,0,1,0,28.428V1.468A1.468,1.468,0,0,1,1.468,0Z" transform="translate(2927.453 575.961) rotate(-81.677)" fill="#6585fd"/><path d="M2954.434,539.411a.3.3,0,0,0-.251-.338l-11.127-1.628a.3.3,0,0,0-.338.252l-.169,1.156,11.716,1.714Z" fill="#1a2a60"/><path d="M2948.825,536.853a1.774,1.774,0,1,0,1.5,2.012A1.773,1.773,0,0,0,2948.825,536.853Zm-.421,2.881a1.137,1.137,0,1,1,1.29-.961A1.138,1.138,0,0,1,2948.4,539.734Z" fill="#1a2a60"/><path d="M2954.294,539.113a.3.3,0,0,1,.14.3l-.169,1.156-11.716-1.714a1.466,1.466,0,0,0,1.239,1.663l8.814,1.29a1.467,1.467,0,0,0,1.663-1.239l.169-1.156A.3.3,0,0,0,2954.294,539.113Z" fill="#1a2a60"/><path d="M2915.821,546.78l9.666.988s-.157,8.2.008,9.146c0,0,16.53,4.582,23.438,5.826,0,0,3.145-1.783,4.418-2.35a30.836,30.836,0,0,1,5.449-1.284c.756-.1.5.729-.151,1.019s-2.331,1.081-2.807,2.051a5.247,5.247,0,0,0,2.086-.173c.722-.321,1.716-1,1.732-1.355s.18-1.205.417-1.159c.06.012.141.292.222.584.077.277.159.562.226.842.122.5.261,1.238.315,1.569a22.846,22.846,0,0,1-.4,3.569c-.119,1.347-.5,1.946-1.215,2.289a17.536,17.536,0,0,1-4.154.84c-3.288.34-6.31-.606-7.629-.754s-22.365-2.236-22.365-2.236-8.368-1.2-8.923-2.644S2915.821,546.78,2915.821,546.78Z" fill="#f1ccc6"/><path d="M2924.218,514.3s-3.05,1.447-5.732,7.7c-2.549,5.938-3.3,35.568-3.3,35.568l10.111-1.685,5.138-13.815a25.34,25.34,0,0,0-2.619-25.2C2926.4,514.918,2925.084,513.742,2924.218,514.3Z" fill="#5e6289"/><path d="M3337.444,414.876h-42.916l3-42.916h42.916Z" fill="#ff58de"/><path d="M3457.566,514.428c-1.754-1.427-15.32,4.526-15.148,6.6s-9.467,22.162-9.467,22.162l-16.656-13.281-.007,0c-.147-.48-1.726-5.646-1.8-6.57-.08-.969-2.9-2.665-4.2-2.415s1.118,1.889,1.276,2.19c.434.819-1.242,1.127-1.242,1.127s-4.756-1.525-4.858-3.078-3.355,2.715-2.973,3.31,8.146,6.842,9.265,8.2c0,0,21.545,24.629,23.079,25.273,1.346.565,6.145-7.922,10.679-13.557S3463.048,518.885,3457.566,514.428Z" fill="#f1ccc6"/><path d="M3501.038,695.526s2.96,2.889,3.027,3.949.263,12.418-.946,13.478-4.759,1.812-3.617,3c.862.9,7.5.709,11.9.467,1.284-.071,2.894-10.314,3.4-11.82.738-2.187,2.534-7.112,1.863-8.636a12.83,12.83,0,0,0-4.1-3.694,20.14,20.14,0,0,1-4.539-4.834Z" fill="#f1ccc6"/><path d="M3470.37,702.253s2.649,7.484,2.652,7.5c.2,1.186.973,4.115.973,5.193,0,4.05-18.263-3.438-14.17-5.232a4.325,4.325,0,0,0,1.655-2.838c.187-2.124-1.539-4.787-1.539-4.787Z" fill="#f1ccc6"/><path d="M3441.72,562.885s-1.332,13.416-1.332,13.617c0,21.7-4.3,64.1-3.484,68.18,2,9.953,23.48,60.725,23.48,60.725L3472,704.019l-12.463-61.354,2.9-23.9,7.879-48.366Z" fill="#5e6289"/><path d="M3480.689,574.752l2.2,12.717,5.96,52.337,22.7,51.151s-3.193,7.443-7.9,8.488l-36.13-52.517-22.443-67.2.788-14.929Z" fill="#5e6289"/><path d="M3437.089,530.939l16.1,1.643s.738-13.2.738-19.5c0-7.638-.65-17.477-1.573-17.265-2.589.594-6.076,2.023-8.151,4.875C3437.02,510.566,3437.089,530.939,3437.089,530.939Z" fill="#fc5409"/><path d="M3445,511.739c-.337,2.329-6.527,65.646-6.527,65.646,29.316,14.158,45.493,2.522,45.493,2.522s-.959-44.462.19-50.514c.761-4,1.709-30.609-.885-31.354a64.915,64.915,0,0,0-11.309-2.4c-3.552-.369-17.35-.582-19.819.247A31.435,31.435,0,0,0,3445,511.739Z" fill="#fc5409"/><path d="M3512.423,692.2s-6.823,19.211-9.494,20.139c-.709.246-4.112.871-4.754,2.376a6.517,6.517,0,0,0,0,1.967H3512.4s1.8-8.464,2.51-12.184c0,0,3.765-9.087,3.346-9.913S3512.423,692.2,3512.423,692.2Z" fill="#f4f7ff"/><path d="M3475.034,716.286l-2.092-6.606s-4.392,1.857-6.588,1.548-6.484-1.548-6.484-1.548c-8.765,2.884-15.947,4.285-14.64,6.606h29.8Z" fill="#f4f7ff"/><path d="M3434.83,557.95a3.707,3.707,0,0,1-.443-.329c.522-6.2.428-12.214-1.519-14.246.047-.1.472-1,.917-1.94,2.256,1.746,3.328,6.381,2.907,13.907a12.769,12.769,0,0,1-.3,1.559C3435.741,557.619,3435.147,558.083,3434.83,557.95Z" fill="#f1ccc6"/><path d="M3468.042,483.4l1.89,12.455s-6.9,14.83-11.021,13.543c-3.457-1.079-1.33-14.2-1.33-14.2s1.884-7.047,1.319-10.573S3468.042,483.4,3468.042,483.4Z" fill="#f1ccc6"/><path d="M3458.9,484.621c-.565-3.527,9.142-1.225,9.142-1.225l.157,1.033a5.764,5.764,0,0,1-1.053,1.736,12.781,12.781,0,0,1-8.487,3.841A19.217,19.217,0,0,0,3458.9,484.621Z" fill="#f1ccc6"/><path d="M3469.635,465.776c.274-.1,2.2,14.185-1.454,18.115s-10.769,5.217-13.321,2.122c-2.824-3.424-2.682-18.777,3-22.821S3469.635,465.776,3469.635,465.776Z" fill="#f1ccc6"/><path d="M3460.019,455.551a15.776,15.776,0,0,1,8.277,4.721c1.993.235,4.7,1.337,7.5,5.968,3.44,5.7.9,12.005-3.1,15.1s-3.949,6.672-3.949,6.672l-.633-1.85a10.347,10.347,0,0,1-.5-4.356,8.531,8.531,0,0,1,.647-2.62c.964-2.067-2.068-3.44-2.918-5.161-.655-1.324-.687-4.354-1.718-6.543l-1.231-1.671s-2.842-2.211-5.621-1.587S3454.387,454.4,3460.019,455.551Z" fill="#1a1534"/><path d="M3465.523,476.568c-.028,1.742.764,3.169,1.77,3.186s1.846-1.381,1.875-3.124-.764-3.17-1.77-3.187S3465.553,474.825,3465.523,476.568Z" fill="#f1ccc6"/><path d="M3414.541,513.161c1.293-1.324,2.5-2.69,3.622-4.085l24.03,23.467c1.477,1.442.969,4.358-1.135,6.512s-5.008,2.732-6.485,1.29l-24.03-23.466C3411.911,515.724,3413.248,514.485,3414.541,513.161Z" fill="#1a2a60"/><ellipse cx="60.61" cy="60.986" rx="60.61" ry="60.986" transform="matrix(0.699, -0.715, 0.715, 0.699, 3284.467, 470.831)" fill="#fff" opacity="0.6"/><path d="M3322.571,519.117c27.242,26.6,70.76,26.224,97.2-.85s25.791-70.588-1.451-97.193-70.76-26.224-97.2.85S3295.329,492.512,3322.571,519.117Zm5.528-5.66a60.61,60.61,0,1,1,85.978-.751A60.8,60.8,0,0,1,3328.1,513.457Z" fill="#1a2a60"/><path d="M3516.826,616.145l3.734-3.874a9.737,9.737,0,0,0-.251-13.767l-69.377-67.262a9.736,9.736,0,0,0-13.767.252l-3.734,3.873a9.735,9.735,0,0,0,.251,13.766l69.377,67.263A9.737,9.737,0,0,0,3516.826,616.145Z" fill="#6585fd"/><path d="M3513,578.055a1.786,1.786,0,0,0,.007-.407c-.432-4.385-4.073-41.206-4.686-42.77-.553-1.414-16.882-24.767-16.882-24.767l-8.025,10.934,15.7,20.946c.352,1.331,6.018,26.187,6.018,26.187s1.161,4.53,1.681,7.244c-.237.654-.47,1.271-.676,1.778a16.331,16.331,0,0,1-1.692,2.719,18.7,18.7,0,0,0-2.006,3.547c-.166.639-.466,1.968-.635,2.77s-.4,1.736-.442,2.171a4.145,4.145,0,0,1-.507,1.167.7.7,0,0,0,.827,1.011c.571-.19,1.015-.928,1.288-1.389.773-1.3,1.185-3.67,1.377-3.545s.87,4.15.977,4.6a49.654,49.654,0,0,0,1.377,5.982c.459.854,1.065.711,1.226.176.139-.46-.506-7-.506-7s-.08-.833.285-.573.962,6.2,1.216,7.063.833,1.329,1.325.631c.6-.849-.43-7.144-.43-7.144s-.116-.791.222-.717.762,5.131,1.025,5.569a.667.667,0,0,0,1.244-.135c.373-.859-.593-6.47-.593-6.47s.047-.447.258-.3.88,4.434,1.316,4.831a.464.464,0,0,0,.672.01c.8-.546-.427-4.623-.415-6.65s-.928-4.3-.648-6.718C3512.919,578.661,3512.968,578.289,3513,578.055Z" fill="#f1ccc6"/><path d="M3504.2,524.9l-13.948,9.364s-7.861-11.7-12.081-15.862c-5.286-5.218,1.926-21.2,5.332-20.295C3491.117,500.131,3504.2,524.9,3504.2,524.9Z" fill="#fc5409"/><path d="M176.265.5H0A.5.5,0,0,1-.5,0,.5.5,0,0,1,0-.5H176.265a.5.5,0,0,1,.5.5A.5.5,0,0,1,176.265.5Z" transform="translate(3081.345 448.079)" fill="#1a2a60"/><path d="M176.265.5H0A.5.5,0,0,1-.5,0,.5.5,0,0,1,0-.5H176.265a.5.5,0,0,1,.5.5A.5.5,0,0,1,176.265.5Z" transform="translate(3081.345 461.214)" fill="#1a2a60"/><path d="M74.764.5H0A.5.5,0,0,1-.5,0,.5.5,0,0,1,0-.5H74.764a.5.5,0,0,1,.5.5A.5.5,0,0,1,74.764.5Z" transform="translate(3081.345 475.506)" fill="#1a2a60"/><path d="M176.265.5H0A.5.5,0,0,1-.5,0,.5.5,0,0,1,0-.5H176.265a.5.5,0,0,1,.5.5A.5.5,0,0,1,176.265.5Z" transform="translate(3081.345 508.904)" fill="#1a2a60"/><path d="M176.265.5H0A.5.5,0,0,1-.5,0,.5.5,0,0,1,0-.5H176.265a.5.5,0,0,1,.5.5A.5.5,0,0,1,176.265.5Z" transform="translate(3081.345 522.039)" fill="#1a2a60"/><path d="M80.108.5H0A.5.5,0,0,1-.5,0,.5.5,0,0,1,0-.5H80.108a.5.5,0,0,1,.5.5A.5.5,0,0,1,80.108.5Z" transform="translate(3348.649 374.876)" fill="#1a2a60"/><path d="M73.887.5H0A.5.5,0,0,1-.5,0,.5.5,0,0,1,0-.5H73.887a.5.5,0,0,1,.5.5A.5.5,0,0,1,73.887.5Z" transform="translate(3347.379 397.598)" fill="#1a2a60"/><path d="M53.352.5H0A.5.5,0,0,1-.5,0,.5.5,0,0,1,0-.5H53.352a.5.5,0,0,1,.5.5A.5.5,0,0,1,53.352.5Z" transform="translate(3348.649 386.011)" fill="#1a2a60"/><path d="M74.764.5H0A.5.5,0,0,1-.5,0,.5.5,0,0,1,0-.5H74.764a.5.5,0,0,1,.5.5A.5.5,0,0,1,74.764.5Z" transform="translate(3081.345 535.021)" fill="#1a2a60"/><path d="M3439.591,192.623h-185.21a13.121,13.121,0,0,1-13.11-13.11l10-120.89a13.12,13.12,0,0,1,13.11-13.1h185.21a13.119,13.119,0,0,1,13.11,13.1l-10,120.87A13.12,13.12,0,0,1,3439.591,192.623Z" fill="#fff"/><path d="M3439.591,192.623h-185.21a13.121,13.121,0,0,1-13.11-13.11l10-120.89a13.12,13.12,0,0,1,13.11-13.1h185.21a13.119,13.119,0,0,1,13.11,13.1l-10,120.87A13.12,13.12,0,0,1,3439.591,192.623Zm-175.21-146.26a12.27,12.27,0,0,0-12.26,12.26l-10,120.87a12.271,12.271,0,0,0,12.26,12.26h185.21a12.27,12.27,0,0,0,12.26-12.26l10-120.87a12.269,12.269,0,0,0-12.26-12.26Z" fill="#1a2a60"/><rect width="210.58" height="0.85" transform="translate(3251.691 65.313)" fill="#1a2a60"/><circle cx="4.13" cy="4.13" r="4.13" transform="translate(3265.503 56.458) rotate(-45)" fill="#1a2a60"/><circle cx="4.13" cy="4.13" r="4.13" transform="translate(3277.302 59.537) rotate(-76.77)" fill="#1a2a60"/><circle cx="4.13" cy="4.13" r="4.13" transform="translate(3288.758 52.333)" fill="#1a2a60"/><path d="M3515.941,208.353h-124.16a24.69,24.69,0,0,1-24.69-24.69v-.04l10-71.14a24.68,24.68,0,0,1,24.68-24.68h124.17a24.679,24.679,0,0,1,24.69,24.67v.01l-10,71.14a24.69,24.69,0,0,1-24.65,24.73Z" fill="#fff"/><path d="M3530.171,208.773h-152.62a10.89,10.89,0,0,1-10.85-10.88l10-99.6a10.89,10.89,0,0,1,10.88-10.88h152.59a10.889,10.889,0,0,1,10.88,10.88l-10,99.6A10.89,10.89,0,0,1,3530.171,208.773Zm-142.62-120.51a10,10,0,0,0-10,10l-10,99.6a10,10,0,0,0,10,10h152.62a10,10,0,0,0,10-10l10-99.6a10,10,0,0,0-10-10Z" fill="#1a2a60"/><rect width="173.53" height="0.85" transform="translate(3377.101 103.723)" fill="#1a2a60"/><circle cx="3.41" cy="3.41" r="3.41" transform="translate(3389.881 93.093)" fill="#1a2a60"/><circle cx="3.41" cy="3.41" r="3.41" transform="translate(3398.871 93.093)" fill="#1a2a60"/><circle cx="3.41" cy="3.41" r="3.41" transform="translate(3407.621 93.093)" fill="#1a2a60"/><path d="M3442.471,169.653H3406.3l8-52.14h28.04l8.14,7.79Z" fill="#1a2a60"/><path d="M3421.261,183.573h-36.18l7-52.14h28.04l8.14,7.79Z" fill="#6585fd"/><path d="M62.23.5H0v-1H62.23Z" transform="translate(3458.191 158.033)" fill="#1a2a60"/><path d="M62.23.5H0v-1H62.23Z" transform="translate(3459.191 152.023)" fill="#1a2a60"/><path d="M62.23.5H0v-1H62.23Z" transform="translate(3460.191 146.023)" fill="#1a2a60"/><path d="M62.23.5H0v-1H62.23Z" transform="translate(3461.191 140.023)" fill="#1a2a60"/><path d="M62.23.5H0v-1H62.23Z" transform="translate(3462.191 134.023)" fill="#1a2a60"/><path d="M62.23.5H0v-1H62.23Z" transform="translate(3463.191 128.023)" fill="#1a2a60"/><path d="M31.4-3A34.4,34.4,0,1,1-3,31.4,34.439,34.439,0,0,1,31.4-3Zm0,62.8A28.4,28.4,0,1,0,3,31.4,28.432,28.432,0,0,0,31.4,59.8Z" transform="translate(3275.731 80.783)" fill="#c5c6cd"/><rect width="210.58" height="0.85" transform="translate(3251.691 65.313)" fill="#1a2a60"/><path d="M3311.606,285.534h-150.67c-16.568,0-30.38.42-30.38-12.69l10.687-118.912c0-16.568,13.125-14.718,29.693-14.718l161.68-.061c16.549.027,18.94,3.812,18.94,20.361l-9.57,113.33C3339.957,288.428,3328.155,285.507,3311.606,285.534Z" fill="#fff"/><circle cx="4.13" cy="4.13" r="4.13" transform="translate(3156.5 145.676)" fill="#1a2a60"/><circle cx="4.13" cy="4.13" r="4.13" transform="translate(3167.415 145.692)" fill="#1a2a60"/><circle cx="4.13" cy="4.13" r="4.13" transform="translate(3178.024 145.672)" fill="#1a2a60"/><path d="M3328.876,285.954h-185.21a13.12,13.12,0,0,1-13.11-13.11l10-120.87a13.121,13.121,0,0,1,13.11-13.1h185.21a13.12,13.12,0,0,1,13.11,13.1l-10,120.87A13.12,13.12,0,0,1,3328.876,285.954Zm-175.21-146.24a12.271,12.271,0,0,0-12.26,12.26l-10.05,120.87a12.279,12.279,0,0,0,12.27,12.26h185.25a12.269,12.269,0,0,0,12.26-12.26l10-120.87a12.27,12.27,0,0,0-12.26-12.26Z" fill="#1a2a60"/><rect width="211.09" height="0.85" transform="translate(3140.466 158.664)" fill="#1a2a60"/><path d="M3226.716,268.684h-71.96l10.01-87.9h71.95Z" fill="#8acbfa"/><path d="M109.85.5H0A.5.5,0,0,1-.5,0,.5.5,0,0,1,0-.5H109.85a.5.5,0,0,1,.5.5A.5.5,0,0,1,109.85.5Z" transform="translate(3181.966 204.044)" fill="#1a2a60"/><path d="M109.85.5H0A.5.5,0,0,1-.5,0,.5.5,0,0,1,0-.5H109.85a.5.5,0,0,1,.5.5A.5.5,0,0,1,109.85.5Z" transform="translate(3181.966 215.294)" fill="#1a2a60"/><path d="M109.85.5H0A.5.5,0,0,1-.5,0,.5.5,0,0,1,0-.5H109.85a.5.5,0,0,1,.5.5A.5.5,0,0,1,109.85.5Z" transform="translate(3181.966 226.964)" fill="#1a2a60"/><path d="M73.89.5H0A.5.5,0,0,1-.5,0,.5.5,0,0,1,0-.5H73.89a.5.5,0,0,1,.5.5A.5.5,0,0,1,73.89.5Z" transform="translate(3236.266 237.284)" fill="#1a2a60"/><path d="M73.89.5H0A.5.5,0,0,1-.5,0,.5.5,0,0,1,0-.5H73.89a.5.5,0,0,1,.5.5A.5.5,0,0,1,73.89.5Z" transform="translate(3236.266 248.114)" fill="#1a2a60"/><path d="M73.89.5H0A.5.5,0,0,1-.5,0,.5.5,0,0,1,0-.5H73.89a.5.5,0,0,1,.5.5A.5.5,0,0,1,73.89.5Z" transform="translate(3236.266 259.364)" fill="#1a2a60"/></g><path d="M11590.837-6163.528l-1-.083,1.624-19.554,1,.083Z" transform="translate(-11369 6451)" fill="#1a2a60"/><path d="M11624.873-6170.167l-2.418-9.8.971-.239,2.418,9.8Z" transform="translate(-11369 6451)" fill="#1a2a60"/><path d="M11495.329-5907.406l-.986-.16,2.007-12.356.986.16Z" transform="translate(-11369 6451)" fill="#1a2a60"/><path d="M12011.64-5929.347l-.977-.219,2.6-11.614.977.219Z" transform="translate(-11369 6451)" fill="#1a2a60"/></g></svg>