<?xml version="1.0" encoding="utf-8"?>
<!-- Generator: Adobe Illustrator 17.0.0, SVG Export Plug-In . SVG Version: 6.00 Build 0)  -->
<!DOCTYPE svg PUBLIC "-//W3C//DTD SVG 1.1//EN" "http://www.w3.org/Graphics/SVG/1.1/DTD/svg11.dtd">
<svg version="1.1" id="Camada_1" xmlns="http://www.w3.org/2000/svg" xmlns:xlink="http://www.w3.org/1999/xlink" x="0px" y="0px"
	 width="550px" height="505px" viewBox="0 0 550 505" enable-background="new 0 0 550 505" xml:space="preserve">
<g>
	<path opacity="0.1" fill="#005BFE" d="M454.996,241.063c-3.48-39.805-16.531-78.63-39.563-112.688
		c-36.162-53.475-95.196-82.378-159.413-66.616c-60.715,14.903-76.132,80.646-126.719,109.772
		c-38.825,22.354-97.651,58.826-88.238,123.54c3.069,21.088,17.033,36.495,36.187,45.141c26.195,11.825,62.821,7.011,86.17,24.268
		c27.06,20.001,49.414,48.237,108.242,69.415c46.525,16.748,99.007-3.298,134.168-35.004
		C449.107,359.868,459.882,296.939,454.996,241.063z"/>
</g>
<g>
	<polygon fill="#FFB573" points="386.361,431.066 378.781,430.947 377.039,413.363 384.619,413.482 	"/>
	<polygon fill="#FFB573" points="425.357,431.094 417.776,431.094 411.87,413.539 419.451,413.539 	"/>
	<path fill="#263238" d="M416.764,430.216h9.242c0.31,0,0.578,0.215,0.645,0.518l1.497,6.738c0.155,0.699-0.394,1.36-1.11,1.348
		c-2.973-0.051-5.143-0.225-8.889-0.225c-2.304,0-9.253,0.239-12.435,0.239c-3.112,0-3.598-3.146-2.295-3.431
		c5.841-1.278,10.242-3.04,12.112-4.721C415.871,430.379,416.311,430.216,416.764,430.216z"/>
	<path fill="#263238" d="M378.848,430.071l8.278,0.13c0.31,0.005,0.575,0.224,0.637,0.528l1.392,6.761
		c0.144,0.701-0.396,1.354-1.112,1.331c-2.985-0.097-7.297-0.34-11.05-0.399c-4.388-0.069-8.182,0.111-13.328,0.03
		c-3.112-0.049-3.926-3.208-2.619-3.473c5.95-1.204,10.794-1.267,15.967-4.346C377.575,430.298,378.193,430.06,378.848,430.071z"/>
	<path fill="#FFB573" d="M383.502,205.173c-2.432,5.402-5.049,10.49-7.993,15.563c-1.467,2.523-2.999,5.028-4.657,7.485
		c-1.628,2.468-3.404,4.895-5.366,7.265l-0.752,0.887l-0.376,0.442c-0.131,0.152-0.214,0.261-0.479,0.541
		c-0.878,0.922-2.089,2.019-4.024,2.624c-0.935,0.303-2.009,0.404-2.975,0.315c-0.994-0.082-1.827-0.355-2.561-0.665
		c-1.426-0.642-2.376-1.432-3.146-2.167c-1.504-1.492-2.461-2.915-3.299-4.339c-0.832-1.42-1.517-2.82-2.148-4.217
		c-2.443-5.608-4.009-11.158-5.198-16.951l5.435-1.691c1.161,2.475,2.362,5.033,3.623,7.477c1.252,2.455,2.537,4.873,3.925,7.106
		c0.684,1.117,1.397,2.19,2.131,3.137c0.727,0.937,1.491,1.8,2.083,2.227c0.28,0.216,0.5,0.265,0.383,0.176
		c-0.074-0.057-0.221-0.113-0.503-0.164c-0.262-0.048-0.613-0.002-0.878,0.06c-0.569,0.182-0.656,0.319-0.594,0.196l1.056-1.449
		c3.008-4.253,5.758-9.03,8.36-13.873c2.602-4.829,5.134-9.866,7.498-14.749L383.502,205.173z"/>
	<g>
		<path fill="#407BFF" d="M386.657,200.422c2.044,6.954-12.345,25.911-12.345,25.911l-14.508-9.336c0,0,4.264-9.672,10.054-17.048
			C375.801,192.376,384.413,192.791,386.657,200.422z"/>
		<path opacity="0.2" d="M386.657,200.422c2.044,6.954-12.345,25.911-12.345,25.911l-14.508-9.336c0,0,4.264-9.672,10.054-17.048
			C375.801,192.376,384.413,192.791,386.657,200.422z"/>
	</g>
	<path opacity="0.2" d="M377.813,208.585c-2.984,1.275-7.376,8.462-9.661,13.789l6.158,3.957c0,0,5.544-7.3,9.255-14.506
		C381.619,209.69,379.39,207.915,377.813,208.585z"/>
	<path fill="#FFB573" d="M345.823,212.982l1.864-8.549l-8.629-0.066c0,0-2.304,6.42,2.331,9.42L345.823,212.982z"/>
	<polygon fill="#FFB573" points="346.703,196.416 339.788,198.908 339.057,204.366 347.686,204.433 	"/>
	<polygon opacity="0.2" points="377.041,413.368 377.937,422.432 385.52,422.551 384.624,413.486 	"/>
	<polygon opacity="0.2" points="419.454,413.543 411.87,413.543 414.918,422.592 422.502,422.592 	"/>
	<g>
		<path fill="#407BFF" d="M420.449,197.347c-8.166,28.796-6.519,59.36-7.256,65.545c-5.93-0.431-28.263-2.095-40.437-3.005
			c-5.303-43.147,5.312-65.315,5.312-65.315s2.6-0.505,6.136-0.868c1.109-0.113,2.305-0.214,3.55-0.279
			c0.688-0.041,1.387-0.063,2.095-0.078c4.575-0.075,12.045,0.652,17.192,1.281c1.078,0.134,2.175,0.296,3.236,0.469
			c0.985,0.168,1.951,0.347,2.861,0.529C417.264,196.449,420.449,197.347,420.449,197.347z"/>
		<path opacity="0.2" d="M420.449,197.347c-8.166,28.796-6.519,59.36-7.256,65.545c-5.93-0.431-28.263-2.095-40.437-3.005
			c-5.303-43.147,5.312-65.315,5.312-65.315s2.6-0.505,6.136-0.868c1.109-0.113,2.305-0.214,3.55-0.279
			c0.688-0.041,1.387-0.063,2.095-0.078c4.575-0.075,12.045,0.652,17.192,1.281c1.078,0.134,2.175,0.296,3.236,0.469
			c0.985,0.168,1.951,0.347,2.861,0.529C417.264,196.449,420.449,197.347,420.449,197.347z"/>
	</g>
	<path opacity="0.2" d="M411.822,209.7c-0.727,2.786,0.104,15.498,3.013,18.633c0.397-4.071,0.926-8.32,1.624-12.665L411.822,209.7z
		"/>
	<path fill="#FFB573" d="M406.775,175.145c-1.496,5.45-3.332,15.503,0.263,19.481c-3.228,2.764-7.415,5.924-13.999,5.666
		c-6.585-0.258-5.101-4.689-3.189-6.944c6.277-1.014,6.458-5.601,5.704-9.979L406.775,175.145z"/>
	<path fill="#263238" d="M406.435,193.059c0,0-2.717,4.484-13.656,7.22c1.811,1.674,2.69,5.635,2.69,5.635
		s14.271-3.443,13.838-11.435C408.56,193.728,406.435,193.059,406.435,193.059z"/>
	<path fill="#263238" d="M388.89,204.913c0,0,1.438-3.459,3.89-4.634c-1.14-1.186-2.86-4.754-1.829-7.377
		c-1.698-0.079-2.538,0.157-2.538,0.157S384.089,198.512,388.89,204.913z"/>
	
		<ellipse transform="matrix(0.9849 0.1731 -0.1731 0.9849 41.3677 -64.6789)" fill="#263238" cx="391.587" cy="204.885" rx="0.735" ry="1.364"/>
	
		<ellipse transform="matrix(0.9964 0.0853 -0.0853 0.9964 19.2715 -32.5864)" fill="#263238" cx="390.933" cy="209.205" rx="0.735" ry="1.364"/>
	<path opacity="0.2" d="M402.2,178.501l-6.642,4.864c0.182,1.036,0.306,2.082,0.303,3.09c2.381-0.165,5.81-2.511,6.244-4.959
		C402.321,180.275,402.358,179.089,402.2,178.501z"/>
	<path fill="#263238" d="M391.606,154.535c-5.892-0.127-7.078,14.109-3.26,16.598C392.165,173.621,402.636,154.772,391.606,154.535z
		"/>
	<path fill="#FFB573" d="M408.052,166.871c-1.017,7.454-1.234,11.869-5.302,15.431c-6.12,5.358-15.108,1.241-16.339-6.367
		c-1.108-6.848,0.742-17.888,8.294-20.323C402.146,153.214,409.07,159.417,408.052,166.871z"/>
	<path fill="#263238" d="M406.984,174.171c-3.797,1.993-8.138-18.637,1.908-17.56C421.466,157.958,414.569,170.19,406.984,174.171z"
		/>
	<path fill="#263238" d="M390.164,156.57c0,4.616,14.986,9.206,20.128,7.632c5.142-1.574,6.425-5.619,3.673-8.5
		C409.295,150.815,390.164,147.517,390.164,156.57z"/>
	<path fill="#263238" d="M390.767,157.189c0,0,0.337,2.074,2.161,4.084c-1.338-0.078-2.673-1.978-3.098-3.085
		C389.406,157.082,390.767,157.189,390.767,157.189z"/>
	<path fill="#FFB573" d="M410.82,175.378c-1.19,1.643-3.028,2.582-4.679,2.818c-2.482,0.355-3.399-1.944-2.437-4.116
		c0.866-1.956,3.2-4.497,5.561-3.856C411.591,170.856,412.182,173.5,410.82,175.378z"/>
	<path fill="#263238" d="M375.124,420.636l12.834,0.195c0,0-4.281-50.702-3.125-74.296c0.353-7.177,1.794-17.216,3.689-27.975
		c2.395-13.556,3.546-18.963,6.644-36.096c2.208-12.216,4.171-20.598,4.171-20.598l-26.582-1.976c0,0-11.273,61.106-11.014,84.241
		C362.007,368.187,375.124,420.636,375.124,420.636z"/>
	<path opacity="0.2" d="M389.987,278.057c-4.779,11.9-4.873,39.779-2.673,47.628c0.378-2.324,0.784-4.703,1.209-7.121
		c2.399-13.562,3.551-18.964,6.649-36.096c0.057-0.34,0.123-0.67,0.179-1.001C393.708,280.022,391.904,278.803,389.987,278.057z"/>
	<path fill="#263238" d="M387.098,260.957c0,0,2.348,63.925,4.129,86.065c1.951,24.245,20.125,73.818,20.125,73.818h13.885
		c0,0-9.264-45.373-12.106-68.918c-3.237-26.82,0.058-89.023,0.058-89.023L387.098,260.957z"/>
	<polygon fill="#407BFF" points="409.69,421.14 426.04,421.14 426.04,416.256 407.763,415.938 	"/>
	<polygon fill="#407BFF" points="373.508,420.91 388.803,421.15 388.88,416.208 371.787,415.68 	"/>
	
		<ellipse transform="matrix(0.9972 0.0743 -0.0743 0.9972 13.5727 -28.9278)" fill="#263238" cx="395.816" cy="168.066" rx="0.724" ry="1.107"/>
	
		<ellipse transform="matrix(0.9972 0.0742 -0.0742 0.9972 13.5028 -28.393)" fill="#263238" cx="388.924" cy="167.553" rx="0.724" ry="1.107"/>
	<path fill="#ED893E" d="M391.814,168.073c0,0-1.648,3.415-3.301,4.998c1.004,1.087,2.872,0.763,2.872,0.763L391.814,168.073z"/>
	<path fill="#263238" d="M393.834,175.657c2.343-0.14,3.539-1.67,3.593-1.742c0.06-0.079,0.045-0.191-0.034-0.251
		c-0.079-0.06-0.191-0.045-0.252,0.033c-0.014,0.018-1.41,1.794-4.079,1.595c-0.099-0.007-0.185,0.067-0.192,0.166
		c-0.007,0.099,0.067,0.185,0.166,0.192C393.316,175.671,393.582,175.672,393.834,175.657z"/>
	<path fill="#263238" d="M398.829,166.052c0.06-0.003,0.119-0.022,0.173-0.057c0.167-0.108,0.214-0.33,0.107-0.496
		c-1.078-1.669-2.735-1.695-2.805-1.695c-0.199-0.001-0.36,0.159-0.361,0.358c-0.001,0.198,0.158,0.359,0.356,0.36l0,0
		c0.055,0.001,1.347,0.035,2.207,1.366C398.578,166.001,398.703,166.059,398.829,166.052z"/>
	<path fill="#263238" d="M386.852,165.015c0.116-0.007,0.227-0.07,0.289-0.178c0.797-1.371,2.086-1.465,2.14-1.468
		c0.197-0.012,0.349-0.181,0.337-0.379c-0.011-0.197-0.178-0.349-0.376-0.339c-0.071,0.005-1.725,0.107-2.723,1.825
		c-0.1,0.171-0.041,0.391,0.13,0.491C386.714,165.003,386.784,165.019,386.852,165.015z"/>
	<g>
		<path fill="#407BFF" d="M414.257,431.541c0.701,0,1.457-0.146,1.984-0.272c0.07-0.017,0.124-0.074,0.135-0.146
			c0.012-0.071-0.021-0.143-0.082-0.181c-0.276-0.173-2.722-1.675-3.56-1.244c-0.13,0.067-0.289,0.209-0.308,0.508
			c-0.025,0.402,0.1,0.721,0.371,0.949C413.141,431.442,413.68,431.541,414.257,431.541z M415.72,431.016
			c-1.287,0.258-2.277,0.211-2.692-0.137c-0.182-0.153-0.262-0.366-0.244-0.651c0.009-0.14,0.065-0.186,0.113-0.211
			C413.334,429.793,414.727,430.441,415.72,431.016z"/>
		<path fill="#407BFF" d="M416.199,431.273c0.034,0,0.068-0.01,0.098-0.029c0.055-0.036,0.086-0.099,0.081-0.165
			c-0.007-0.093-0.188-2.28-1.069-3c-0.229-0.187-0.487-0.265-0.765-0.231c0,0,0,0,0,0c-0.429,0.053-0.542,0.318-0.571,0.471
			c-0.16,0.845,1.356,2.506,2.141,2.932C416.14,431.266,416.169,431.273,416.199,431.273z M414.669,428.201
			c0.148,0,0.283,0.052,0.413,0.157c0.565,0.461,0.807,1.736,0.895,2.375c-0.78-0.592-1.746-1.847-1.651-2.346
			c0.009-0.046,0.029-0.152,0.262-0.181l0,0C414.615,428.202,414.642,428.201,414.669,428.201z"/>
		<path fill="#407BFF" d="M378.085,431.106c0.063-0.021,0.111-0.075,0.121-0.143c0.012-0.075-0.025-0.15-0.092-0.186
			c-0.342-0.183-3.365-1.776-4.293-1.277c-0.179,0.096-0.284,0.26-0.304,0.473v0c-0.033,0.357,0.076,0.653,0.323,0.878
			c0.82,0.749,2.997,0.485,4.222,0.26C378.07,431.111,378.078,431.109,378.085,431.106z M374.057,429.789
			c0.575-0.189,2.217,0.467,3.41,1.059c-1.678,0.252-2.924,0.16-3.384-0.261c-0.162-0.148-0.23-0.338-0.207-0.581
			c0.009-0.094,0.043-0.15,0.116-0.19C374.011,429.806,374.033,429.797,374.057,429.789z"/>
		<path fill="#407BFF" d="M378.085,431.106c0.016-0.005,0.032-0.013,0.046-0.023c0.053-0.036,0.082-0.098,0.077-0.162
			c-0.007-0.087-0.179-2.131-1.131-2.938c-0.29-0.246-0.624-0.355-0.991-0.324l0,0c-0.495,0.042-0.641,0.29-0.677,0.491
			c-0.152,0.855,1.635,2.523,2.543,2.947C377.995,431.118,378.043,431.12,378.085,431.106z M375.933,428.052
			c0.047-0.015,0.107-0.028,0.184-0.034l0,0c0.272-0.023,0.51,0.055,0.728,0.24c0.626,0.53,0.876,1.755,0.964,2.353
			c-0.925-0.576-2.137-1.883-2.046-2.396C375.769,428.182,375.784,428.101,375.933,428.052z M376.102,427.839l-0.004,0.001
			L376.102,427.839z"/>
	</g>
	<g>
		<path fill="#FFB573" d="M422.395,202.068c2.641,5.312,5.015,10.616,7.196,16.093c1.107,2.725,2.127,5.49,3.129,8.278
			c0.49,1.401,0.963,2.805,1.416,4.231l0.342,1.066l0.365,1.224c0.263,0.839,0.421,1.679,0.615,2.517
			c1.244,6.736,0.51,13.12-0.865,19.099c-0.699,2.996-1.606,5.901-2.659,8.733c-0.541,1.412-1.116,2.806-1.726,4.184
			c-0.61,1.395-1.239,2.707-2.007,4.124l-5.219-2.271c0.729-2.577,1.464-5.357,1.982-8.069c0.569-2.72,1.004-5.451,1.301-8.154
			c0.268-2.704,0.448-5.386,0.324-7.985c-0.07-2.6-0.418-5.108-1.043-7.403c-0.18-0.558-0.32-1.137-0.537-1.664
			c-0.109-0.282-0.178-0.507-0.315-0.836l-0.403-0.972c-0.525-1.296-1.103-2.587-1.651-3.885c-1.105-2.599-2.299-5.179-3.457-7.777
			l-7.127-15.519L422.395,202.068z"/>
		<g>
			<path fill="#407BFF" d="M420.447,197.348c6.917,2.166,13.718,25.618,13.718,25.618l-16.003,7.004c0,0-5.177-11.333-8.154-20.215
				C406.766,200.081,412.068,194.724,420.447,197.348z"/>
			<path opacity="0.2" d="M420.447,197.348c6.917,2.166,13.718,25.618,13.718,25.618l-16.003,7.004c0,0-5.177-11.333-8.154-20.215
				C406.766,200.081,412.068,194.724,420.447,197.348z"/>
		</g>
		<path fill="#FFB573" d="M423.408,268.034l-3.733,6.734l8.79,2.29c0,0,2.661-6.532-0.478-8.602L423.408,268.034z"/>
		<polygon fill="#FFB573" points="419.02,282.413 427.098,283.083 428.465,277.058 419.675,274.768 		"/>
	</g>
</g>
<g>
	<g>
		<g>
			<path fill="#263238" d="M257.568,439.138c14.741,0,26.691-23.672,26.691-52.874c0-29.201-11.95-52.873-26.691-52.873h-34.245
				v105.747H257.568z"/>
			<ellipse fill="#263238" cx="223.196" cy="386.265" rx="26.691" ry="52.873"/>
		</g>
		<g>
			<path fill="#263238" d="M453.302,439.138c14.741,0,26.691-23.672,26.691-52.874c0-29.201-11.95-52.873-26.691-52.873h-34.245
				v105.747H453.302z"/>
			<ellipse fill="#263238" cx="418.93" cy="386.265" rx="26.691" ry="52.873"/>
		</g>
		<path fill="#005BFE" d="M82.595,412.51l-18.282-4.497c-6.26-1.54-11.521-5.764-14.377-11.544l-0.013-0.026
			c-1.246-2.522-2.968-4.781-5.07-6.651l-4.491-3.995c-5.211-4.635-7.898-11.477-7.233-18.419l2.475-25.857
			c0.85-8.878,7.007-16.349,15.558-18.88l13.065-3.867l47.154-3.356L82.595,412.51z"/>
		<g>
			<path fill="#263238" d="M122.468,439.138c14.741,0,26.691-23.672,26.691-52.874c0-29.201-11.95-52.873-26.691-52.873H88.223
				v105.747H122.468z"/>
			<ellipse fill="#263238" cx="88.096" cy="386.265" rx="26.691" ry="52.873"/>
			<ellipse opacity="0.1" fill="#FFFFFF" cx="88.096" cy="386.265" rx="18.726" ry="41.795"/>
		</g>
		<path fill="#005BFE" d="M358.971,412.51l46.095-103.014c0,0-68.973-51.348-156.418-51.348
			c-141.827,0-136.959,19.12-184.422,60.627l20.717,14.617c36.859,0,39.933,58.431,45.824,74.865
			c0.914,2.548,3.321,4.254,6.028,4.254H358.971"/>
		<g>
			<path fill="#263238" d="M318.202,439.138c14.741,0,26.691-23.672,26.691-52.874c0-29.201-11.95-52.873-26.691-52.873h-34.245
				v105.747H318.202z"/>
			<ellipse fill="#263238" cx="283.83" cy="386.265" rx="26.691" ry="52.873"/>
			<ellipse opacity="0.1" fill="#FFFFFF" cx="283.83" cy="386.265" rx="18.726" ry="41.795"/>
		</g>
		<path fill="#005BFE" d="M331.467,404.007c-4.248-19.298-24.555-70.554-48.905-70.554l-26.372-23.957c0,0,129.218,0,148.876,0
			c10.312,0,56.083,6.325,82.022,23.895c20.956,14.195,23.503,35.728,26.549,67.203c0.622,6.426-5.001,11.948-12.103,11.951
			c-59.655,0.027-131.849,0.232-158.131,0.311C337.603,412.874,332.605,409.173,331.467,404.007z"/>
		<path opacity="0.8" fill="#FFFFFF" d="M394.305,309.497H297.25c-4.553,0-8.852-2.209-11.4-5.984
			c-10.802-16.004-29.921-32.217-43.928-39.899C340.043,263.614,394.305,309.497,394.305,309.497z"/>
		<path opacity="0.8" fill="#FFFFFF" d="M239.522,268.436c11.775,8.515,25.155,21.721,32.666,34.842
			c1.586,2.77-0.387,6.219-3.578,6.219H109.602c-16.862,0-11.27-42.028,76.866-45.173c8.304-0.717,27.676-0.742,38.382-0.694
			C230.129,263.653,235.244,265.343,239.522,268.436z"/>
		<path fill="#263238" d="M348.291,389.572l50.972,3.847c1.648,0.124,2.922,1.498,2.922,3.151v3.482c0,1.745-1.415,3.16-3.16,3.16
			h-50.972c-1.745,0-3.16-1.415-3.16-3.16v-7.328C344.893,390.884,346.457,389.433,348.291,389.572z"/>
		<path fill="#263238" d="M510.331,390.314l-14.04,2.816c-1.476,0.296-2.538,1.593-2.538,3.098v3.823c0,1.745,1.415,3.16,3.16,3.16
			h14.832c1.894,0,3.362-1.654,3.138-3.534l-0.792-6.64C513.871,391.207,512.138,389.952,510.331,390.314z"/>
		<path opacity="0.8" fill="#FFFFFF" d="M390.238,330.289l-71.176-3.459c0,0-0.724,12.61,25.645,15.327
			C371.076,344.875,390.238,330.289,390.238,330.289z"/>
		<path opacity="0.3" d="M35.609,341.515c0.199-2.12,0.702-4.149,1.465-6.055l4.819-0.137c0,0,0.229,18.5-6.757,17.341
			c-0.198-0.03-0.381-0.076-0.579-0.137L35.609,341.515z"/>
		<path opacity="0.8" fill="#FFFFFF" d="M480.083,329.161c2.455,1.327,4.804,2.73,7,4.225c3.645,2.471,6.726,5.155,9.349,8.083
			c-0.93,0.275-1.937,0.503-3.02,0.687c-15.801,2.714-27.286-11.866-27.286-11.866L480.083,329.161z"/>
		<path fill="#263238" d="M412.287,350.168h50.372c1.734,0,3.461,0.555,4.928,1.583l8.804,6.172c2.026,1.421,3.381,3.62,3.703,6.01
			l2.244,16.674c0.631,4.688-2.815,8.66-7.513,8.66h-53.868c-3.212,0-6.252-1.891-7.758-4.826l-10.067-19.615
			c-1.463-2.85-1.215-6.174,0.638-8.554l2.516-3.231C407.704,351.219,409.899,350.168,412.287,350.168z"/>
		<path opacity="0.1" d="M146.781,390.84h98.499c1.377,0,2.457,1.181,2.335,2.552l-0.51,5.734c-0.108,1.209-1.121,2.137-2.335,2.137
			h-98.499c-1.377,0-2.457-1.181-2.335-2.552l0.51-5.734C144.553,391.767,145.567,390.84,146.781,390.84z"/>
		<polygon fill="#407BFF" points="178.181,263.614 184.084,262.47 172.017,315.419 166.375,315.419 		"/>
		<path fill="#263238" d="M199.699,321.355h-20.167l-0.522,2.118c-0.542,2.199,0.802,3.983,3.001,3.983h12.202
			c2.199,0,4.422-1.783,4.964-3.983L199.699,321.355z"/>
		<path fill="#263238" d="M130.303,321.355h-20.167l-0.522,2.118c-0.542,2.199,0.802,3.983,3.001,3.983h12.202
			c2.2,0,4.422-1.783,4.964-3.983L130.303,321.355z"/>
	</g>
	<path opacity="0.1" d="M169.803,383.995c-0.365,0-0.665-0.292-0.673-0.659l-1.481-69.323c-0.008-0.372,0.287-0.68,0.658-0.688
		c0.006,0,0.01,0,0.015,0c0.365,0,0.665,0.292,0.673,0.659l1.481,69.323c0.008,0.372-0.287,0.68-0.658,0.688
		C169.812,383.995,169.808,383.995,169.803,383.995z"/>
</g>
</svg>
